<svg width="142" height="36" viewBox="0 0 142 36" fill="none" xmlns="http://www.w3.org/2000/svg">
<path d="M0 4C0 1.79086 1.79086 0 4 0H36V36H4C1.79086 36 0 34.2091 0 32V4Z" fill="#FEF08A"/>
<path d="M36 0H138C140.209 0 142 1.79086 142 4V32C142 34.2091 140.209 36 138 36H36V0Z" fill="#FEFCE8"/>
<path d="M46.6651 24V12.832H48.4731V22.4H53.0171V24H46.6651ZM57.8479 24.192C57.2506 24.192 56.7173 24.0907 56.2479 23.888C55.7786 23.6853 55.3786 23.3973 55.0479 23.024C54.7173 22.64 54.4613 22.1813 54.2799 21.648C54.1093 21.104 54.0239 20.5013 54.0239 19.84C54.0239 19.1787 54.1093 18.5813 54.2799 18.048C54.4613 17.504 54.7173 17.0453 55.0479 16.672C55.3786 16.288 55.7786 15.9947 56.2479 15.792C56.7173 15.5893 57.2506 15.488 57.8479 15.488C58.4559 15.488 58.9893 15.5947 59.4479 15.808C59.9173 16.0213 60.3066 16.32 60.6159 16.704C60.9253 17.0773 61.1546 17.5147 61.3039 18.016C61.4639 18.5173 61.5439 19.056 61.5439 19.632V20.288H55.8319V20.56C55.8319 21.2 56.0186 21.728 56.3919 22.144C56.7759 22.5493 57.3199 22.752 58.0239 22.752C58.5359 22.752 58.9679 22.64 59.3199 22.416C59.6719 22.192 59.9706 21.888 60.2159 21.504L61.2399 22.512C60.9306 23.024 60.4826 23.4347 59.8959 23.744C59.3093 24.0427 58.6266 24.192 57.8479 24.192ZM57.8479 16.848C57.5493 16.848 57.2719 16.9013 57.0159 17.008C56.7706 17.1147 56.5573 17.264 56.3759 17.456C56.2053 17.648 56.0719 17.8773 55.9759 18.144C55.8799 18.4107 55.8319 18.704 55.8319 19.024V19.136H59.7039V18.976C59.7039 18.336 59.5386 17.824 59.2079 17.44C58.8773 17.0453 58.4239 16.848 57.8479 16.848ZM69.5706 24C69.1119 24 68.7599 23.872 68.5146 23.616C68.2692 23.3493 68.1199 23.0133 68.0666 22.608H67.9866C67.8266 23.1307 67.5332 23.5253 67.1066 23.792C66.6799 24.0587 66.1626 24.192 65.5546 24.192C64.6906 24.192 64.0239 23.968 63.5546 23.52C63.0959 23.072 62.8666 22.4693 62.8666 21.712C62.8666 20.88 63.1652 20.256 63.7626 19.84C64.3706 19.424 65.2559 19.216 66.4186 19.216H67.9226V18.512C67.9226 18 67.7839 17.6053 67.5066 17.328C67.2292 17.0507 66.7972 16.912 66.2106 16.912C65.7199 16.912 65.3199 17.0187 65.0106 17.232C64.7012 17.4453 64.4399 17.7173 64.2266 18.048L63.1866 17.104C63.4639 16.6347 63.8532 16.2507 64.3546 15.952C64.8559 15.6427 65.5119 15.488 66.3226 15.488C67.3999 15.488 68.2266 15.7387 68.8026 16.24C69.3786 16.7413 69.6666 17.4613 69.6666 18.4V22.576H70.5466V24H69.5706ZM66.0506 22.864C66.5946 22.864 67.0426 22.7467 67.3946 22.512C67.7466 22.2667 67.9226 21.9413 67.9226 21.536V20.336H66.4506C65.2452 20.336 64.6426 20.7093 64.6426 21.456V21.744C64.6426 22.1173 64.7652 22.4 65.0106 22.592C65.2666 22.7733 65.6132 22.864 66.0506 22.864ZM73.9232 24L71.0912 15.68H72.8192L74.0832 19.472L74.9312 22.384H75.0272L75.8752 19.472L77.1712 15.68H78.8352L75.9712 24H73.9232ZM83.4417 24.192C82.8444 24.192 82.311 24.0907 81.8417 23.888C81.3724 23.6853 80.9724 23.3973 80.6417 23.024C80.311 22.64 80.055 22.1813 79.8737 21.648C79.703 21.104 79.6177 20.5013 79.6177 19.84C79.6177 19.1787 79.703 18.5813 79.8737 18.048C80.055 17.504 80.311 17.0453 80.6417 16.672C80.9724 16.288 81.3724 15.9947 81.8417 15.792C82.311 15.5893 82.8444 15.488 83.4417 15.488C84.0497 15.488 84.583 15.5947 85.0417 15.808C85.511 16.0213 85.9004 16.32 86.2097 16.704C86.519 17.0773 86.7484 17.5147 86.8977 18.016C87.0577 18.5173 87.1377 19.056 87.1377 19.632V20.288H81.4257V20.56C81.4257 21.2 81.6124 21.728 81.9857 22.144C82.3697 22.5493 82.9137 22.752 83.6177 22.752C84.1297 22.752 84.5617 22.64 84.9137 22.416C85.2657 22.192 85.5644 21.888 85.8097 21.504L86.8337 22.512C86.5244 23.024 86.0764 23.4347 85.4897 23.744C84.903 24.0427 84.2204 24.192 83.4417 24.192ZM83.4417 16.848C83.143 16.848 82.8657 16.9013 82.6097 17.008C82.3644 17.1147 82.151 17.264 81.9697 17.456C81.799 17.648 81.6657 17.8773 81.5697 18.144C81.4737 18.4107 81.4257 18.704 81.4257 19.024V19.136H85.2977V18.976C85.2977 18.336 85.1324 17.824 84.8017 17.44C84.471 17.0453 84.0177 16.848 83.4417 16.848ZM98.9456 24C98.4869 24 98.1349 23.872 97.8896 23.616C97.6442 23.3493 97.4949 23.0133 97.4416 22.608H97.3616C97.2016 23.1307 96.9082 23.5253 96.4816 23.792C96.0549 24.0587 95.5376 24.192 94.9296 24.192C94.0656 24.192 93.3989 23.968 92.9296 23.52C92.4709 23.072 92.2416 22.4693 92.2416 21.712C92.2416 20.88 92.5402 20.256 93.1376 19.84C93.7456 19.424 94.6309 19.216 95.7936 19.216H97.2976V18.512C97.2976 18 97.1589 17.6053 96.8816 17.328C96.6042 17.0507 96.1722 16.912 95.5856 16.912C95.0949 16.912 94.6949 17.0187 94.3856 17.232C94.0762 17.4453 93.8149 17.7173 93.6016 18.048L92.5616 17.104C92.8389 16.6347 93.2282 16.2507 93.7296 15.952C94.2309 15.6427 94.8869 15.488 95.6976 15.488C96.7749 15.488 97.6016 15.7387 98.1776 16.24C98.7536 16.7413 99.0416 17.4613 99.0416 18.4V22.576H99.9216V24H98.9456ZM95.4256 22.864C95.9696 22.864 96.4176 22.7467 96.7696 22.512C97.1216 22.2667 97.2976 21.9413 97.2976 21.536V20.336H95.8256C94.6202 20.336 94.0176 20.7093 94.0176 21.456V21.744C94.0176 22.1173 94.1402 22.4 94.3856 22.592C94.6416 22.7733 94.9882 22.864 95.4256 22.864ZM108.052 24.192C107.263 24.192 106.601 24.0533 106.068 23.776C105.535 23.4987 105.071 23.1147 104.676 22.624L105.796 21.6C106.105 21.9733 106.447 22.2667 106.82 22.48C107.204 22.6827 107.647 22.784 108.148 22.784C108.66 22.784 109.039 22.688 109.284 22.496C109.54 22.2933 109.668 22.016 109.668 21.664C109.668 21.3973 109.577 21.1733 109.396 20.992C109.225 20.8 108.921 20.6773 108.484 20.624L107.716 20.528C106.863 20.4213 106.191 20.176 105.7 19.792C105.22 19.3973 104.98 18.816 104.98 18.048C104.98 17.6427 105.055 17.2853 105.204 16.976C105.353 16.656 105.561 16.3893 105.828 16.176C106.105 15.952 106.431 15.7813 106.804 15.664C107.188 15.5467 107.609 15.488 108.068 15.488C108.815 15.488 109.423 15.6053 109.892 15.84C110.372 16.0747 110.799 16.4 111.172 16.816L110.1 17.84C109.887 17.584 109.604 17.3653 109.252 17.184C108.911 16.992 108.516 16.896 108.068 16.896C107.588 16.896 107.231 16.992 106.996 17.184C106.772 17.376 106.66 17.6267 106.66 17.936C106.66 18.256 106.761 18.496 106.964 18.656C107.167 18.816 107.492 18.9333 107.94 19.008L108.708 19.104C109.625 19.2427 110.292 19.5147 110.708 19.92C111.135 20.3147 111.348 20.848 111.348 21.52C111.348 21.9253 111.268 22.2933 111.108 22.624C110.959 22.944 110.74 23.2213 110.452 23.456C110.164 23.6907 109.817 23.872 109.412 24C109.007 24.128 108.553 24.192 108.052 24.192ZM115.513 24C114.905 24 114.446 23.8453 114.137 23.536C113.828 23.216 113.673 22.768 113.673 22.192V17.104H112.377V15.68H113.081C113.369 15.68 113.566 15.616 113.673 15.488C113.79 15.36 113.849 15.152 113.849 14.864V13.408H115.417V15.68H117.161V17.104H115.417V22.576H117.033V24H115.513ZM125.149 24C124.69 24 124.338 23.872 124.093 23.616C123.847 23.3493 123.698 23.0133 123.645 22.608H123.565C123.405 23.1307 123.111 23.5253 122.685 23.792C122.258 24.0587 121.741 24.192 121.133 24.192C120.269 24.192 119.602 23.968 119.133 23.52C118.674 23.072 118.445 22.4693 118.445 21.712C118.445 20.88 118.743 20.256 119.341 19.84C119.949 19.424 120.834 19.216 121.997 19.216H123.501V18.512C123.501 18 123.362 17.6053 123.085 17.328C122.807 17.0507 122.375 16.912 121.789 16.912C121.298 16.912 120.898 17.0187 120.589 17.232C120.279 17.4453 120.018 17.7173 119.805 18.048L118.765 17.104C119.042 16.6347 119.431 16.2507 119.933 15.952C120.434 15.6427 121.09 15.488 121.901 15.488C122.978 15.488 123.805 15.7387 124.381 16.24C124.957 16.7413 125.245 17.4613 125.245 18.4V22.576H126.125V24H125.149ZM121.629 22.864C122.173 22.864 122.621 22.7467 122.973 22.512C123.325 22.2667 123.501 21.9413 123.501 21.536V20.336H122.029C120.823 20.336 120.221 20.7093 120.221 21.456V21.744C120.221 22.1173 120.343 22.4 120.589 22.592C120.845 22.7733 121.191 22.864 121.629 22.864ZM127.834 24V15.68H129.578V17.28H129.658C129.775 16.8533 130.021 16.48 130.394 16.16C130.767 15.84 131.285 15.68 131.946 15.68H132.41V17.36H131.722C131.029 17.36 130.495 17.472 130.122 17.696C129.759 17.92 129.578 18.2507 129.578 18.688V24H127.834Z" fill="black"/>
<path fill-rule="evenodd" clip-rule="evenodd" d="M17.9999 6.75C11.6619 6.75 6.5249 11.887 6.5249 18.225C6.5249 23.2929 9.81335 27.5936 14.3719 29.1152C14.9441 29.2221 15.1579 28.8637 15.1579 28.5619C15.1579 28.2853 15.1453 27.3861 15.1453 26.4241C11.9512 27.1158 11.2784 25.0723 11.2784 25.0723C10.7565 23.7456 10.002 23.3935 10.002 23.3935C8.95823 22.683 10.0774 22.6955 10.0774 22.6955C11.2281 22.7773 11.838 23.8776 11.838 23.8776C12.8629 25.6319 14.5228 25.1226 15.1767 24.8333C15.2773 24.0914 15.5791 23.5884 15.9061 23.2992C13.3596 23.0099 10.6748 22.0228 10.6748 17.6277C10.6748 16.3764 11.1212 15.3515 11.8568 14.5467C11.7374 14.2575 11.3475 13.088 11.97 11.5098C11.97 11.5098 12.932 11.2017 15.1264 12.6856C16.0444 12.4341 17.0253 12.302 17.9999 12.302C18.9745 12.3083 19.9554 12.4341 20.8734 12.6856C23.0615 11.2017 24.0235 11.5098 24.0235 11.5098C24.646 13.088 24.2561 14.2575 24.1367 14.5467C24.8723 15.3515 25.3188 16.3764 25.3188 17.6277C25.3188 22.0353 22.6339 23.0036 20.0811 23.2866C20.4898 23.645 20.8608 24.3429 20.8608 25.4118C20.8608 26.946 20.8482 28.1847 20.8482 28.5619C20.8482 28.87 21.0557 29.2221 21.6342 29.1152C26.1927 27.5936 29.4749 23.2991 29.4749 18.225C29.4749 11.887 24.3379 6.75 17.9999 6.75Z" fill="#1B1948"/>
<path d="M10.8699 23.2237C10.8448 23.2803 10.7567 23.2992 10.675 23.2615C10.5933 23.2237 10.543 23.1483 10.5744 23.0917C10.5996 23.0351 10.6876 23.0162 10.7693 23.054C10.8511 23.0917 10.9014 23.1671 10.8699 23.2237Z" fill="#1B1948"/>
<path d="M11.3351 23.7455C11.2785 23.7958 11.1717 23.7707 11.1025 23.6952C11.027 23.6135 11.0145 23.5066 11.0711 23.4563C11.1276 23.406 11.2282 23.4312 11.3037 23.5066C11.3792 23.5884 11.3917 23.6952 11.3351 23.7455Z" fill="#1B1948"/>
<path d="M11.7877 24.4058C11.7185 24.4561 11.6054 24.4121 11.5299 24.3052C11.4607 24.2046 11.4607 24.0789 11.5299 24.0286C11.5991 23.9783 11.7122 24.0223 11.7877 24.1229C11.8631 24.2298 11.8631 24.3555 11.7877 24.4058Z" fill="#1B1948"/>
<path d="M12.4103 25.0408C12.3474 25.11 12.2153 25.0911 12.1147 24.9968C12.0141 24.9025 11.989 24.7705 12.0519 24.7013C12.1147 24.6321 12.2531 24.651 12.3474 24.7453C12.448 24.8459 12.4731 24.978 12.4103 25.0408Z" fill="#1B1948"/>
<path d="M13.2654 25.4118C13.2402 25.4999 13.1082 25.5439 12.9761 25.5061C12.8441 25.4684 12.7623 25.3615 12.7875 25.2735C12.8126 25.1855 12.9447 25.1415 13.0767 25.1792C13.2025 25.2169 13.2905 25.3238 13.2654 25.4118Z" fill="#1B1948"/>
<path d="M14.2023 25.4811C14.2086 25.5754 14.0954 25.6571 13.9571 25.6571C13.8187 25.6634 13.7119 25.5817 13.7056 25.4874C13.7056 25.393 13.8125 25.3113 13.9508 25.3113C14.0891 25.3113 14.2023 25.3868 14.2023 25.4811Z" fill="#1B1948"/>
<path d="M15.0763 25.3364C15.0951 25.4307 15.0008 25.525 14.8625 25.5502C14.7305 25.5753 14.6047 25.5188 14.5921 25.4244C14.5733 25.3301 14.6739 25.2358 14.8059 25.2107C14.9379 25.1855 15.0574 25.2421 15.0763 25.3364Z" fill="#1B1948"/>
</svg>
