<svg width="210" height="50" viewBox="0 0 210 50" fill="none" xmlns="http://www.w3.org/2000/svg">
<rect width="210" height="50" rx="6" fill="url(#paint0_linear_1457_580)"/>
<path d="M66.053 22.98H65.973L64.893 25.2L62.033 30.48L59.173 25.2L58.093 22.98H58.013V33H55.513V19.04H58.493L62.073 25.86H62.153L65.693 19.04H68.553V33H66.053V22.98ZM79.3612 33C78.8012 33 78.3545 32.84 78.0212 32.52C77.7012 32.1867 77.5012 31.7467 77.4212 31.2H77.3012C77.1278 31.88 76.7745 32.3933 76.2412 32.74C75.7078 33.0733 75.0478 33.24 74.2612 33.24C73.1945 33.24 72.3745 32.96 71.8012 32.4C71.2278 31.84 70.9412 31.0933 70.9412 30.16C70.9412 29.08 71.3278 28.28 72.1012 27.76C72.8745 27.2267 73.9745 26.96 75.4012 26.96H77.1812V26.2C77.1812 25.6133 77.0278 25.16 76.7212 24.84C76.4145 24.52 75.9212 24.36 75.2412 24.36C74.6412 24.36 74.1545 24.4933 73.7812 24.76C73.4212 25.0133 73.1145 25.32 72.8612 25.68L71.3412 24.32C71.7278 23.72 72.2412 23.24 72.8812 22.88C73.5212 22.5067 74.3678 22.32 75.4212 22.32C76.8345 22.32 77.9078 22.64 78.6412 23.28C79.3745 23.92 79.7412 24.84 79.7412 26.04V30.96H80.7812V33H79.3612ZM75.1212 31.38C75.6945 31.38 76.1812 31.2533 76.5812 31C76.9812 30.7467 77.1812 30.3733 77.1812 29.88V28.5H75.5412C74.2078 28.5 73.5412 28.9267 73.5412 29.78V30.12C73.5412 30.5467 73.6745 30.8667 73.9412 31.08C74.2212 31.28 74.6145 31.38 75.1212 31.38ZM89.333 31.26H89.233C89.0464 31.86 88.693 32.34 88.173 32.7C87.653 33.06 87.0464 33.24 86.353 33.24C85.033 33.24 84.0197 32.7667 83.313 31.82C82.6197 30.8733 82.273 29.52 82.273 27.76C82.273 26.0133 82.6197 24.6733 83.313 23.74C84.0197 22.7933 85.033 22.32 86.353 22.32C87.0464 22.32 87.653 22.5 88.173 22.86C88.693 23.2067 89.0464 23.68 89.233 24.28H89.333V18.2H91.893V33H89.333V31.26ZM87.173 31.12C87.7864 31.12 88.2997 30.9733 88.713 30.68C89.1264 30.3867 89.333 29.9667 89.333 29.42V26.1C89.333 25.5933 89.1264 25.1867 88.713 24.88C88.2997 24.5733 87.7864 24.42 87.173 24.42C86.5064 24.42 85.9664 24.6467 85.553 25.1C85.153 25.54 84.953 26.1333 84.953 26.88V28.68C84.953 29.4267 85.153 30.02 85.553 30.46C85.9664 30.9 86.5064 31.12 87.173 31.12ZM99.0652 33.24C98.2919 33.24 97.5986 33.1133 96.9852 32.86C96.3852 32.5933 95.8719 32.2267 95.4452 31.76C95.0319 31.28 94.7119 30.7067 94.4852 30.04C94.2586 29.36 94.1452 28.6 94.1452 27.76C94.1452 26.9333 94.2519 26.1867 94.4652 25.52C94.6919 24.8533 95.0119 24.2867 95.4252 23.82C95.8386 23.34 96.3452 22.9733 96.9452 22.72C97.5452 22.4533 98.2252 22.32 98.9852 22.32C99.7986 22.32 100.505 22.46 101.105 22.74C101.705 23.02 102.199 23.4 102.585 23.88C102.972 24.36 103.259 24.92 103.445 25.56C103.645 26.1867 103.745 26.86 103.745 27.58V28.42H96.8052V28.68C96.8052 29.44 97.0186 30.0533 97.4452 30.52C97.8719 30.9733 98.5052 31.2 99.3452 31.2C99.9852 31.2 100.505 31.0667 100.905 30.8C101.319 30.5333 101.685 30.1933 102.005 29.78L103.385 31.32C102.959 31.92 102.372 32.3933 101.625 32.74C100.892 33.0733 100.039 33.24 99.0652 33.24ZM99.0252 24.24C98.3452 24.24 97.8052 24.4667 97.4052 24.92C97.0052 25.3733 96.8052 25.96 96.8052 26.68V26.84H101.085V26.66C101.085 25.94 100.905 25.36 100.545 24.92C100.199 24.4667 99.6919 24.24 99.0252 24.24ZM109.704 22.56H112.164L113.224 26.86L114.044 30.44H114.124L115.084 26.86L116.304 22.56H118.624L119.884 26.86L120.864 30.44H120.944L121.764 26.86L122.804 22.56H125.184L122.324 33H119.564L118.224 28.4L117.444 25.56H117.384L116.624 28.4L115.304 33H112.584L109.704 22.56ZM128.391 21.04C127.858 21.04 127.471 20.92 127.231 20.68C127.004 20.44 126.891 20.1333 126.891 19.76V19.36C126.891 18.9867 127.004 18.68 127.231 18.44C127.471 18.2 127.858 18.08 128.391 18.08C128.911 18.08 129.291 18.2 129.531 18.44C129.771 18.68 129.891 18.9867 129.891 19.36V19.76C129.891 20.1333 129.771 20.44 129.531 20.68C129.291 20.92 128.911 21.04 128.391 21.04ZM127.111 22.56H129.671V33H127.111V22.56ZM135.898 33C135.018 33 134.345 32.7733 133.878 32.32C133.425 31.8533 133.198 31.1933 133.198 30.34V24.6H131.658V22.56H132.458C132.845 22.56 133.105 22.4733 133.238 22.3C133.385 22.1133 133.458 21.84 133.458 21.48V19.7H135.758V22.56H137.898V24.6H135.758V30.96H137.738V33H135.898ZM140.119 18.2H142.679V24.3H142.779C142.992 23.74 143.325 23.2733 143.779 22.9C144.245 22.5133 144.885 22.32 145.699 22.32C146.779 22.32 147.605 22.6733 148.179 23.38C148.752 24.0867 149.039 25.0933 149.039 26.4V33H146.479V26.66C146.479 25.9133 146.345 25.3533 146.079 24.98C145.812 24.6067 145.372 24.42 144.759 24.42C144.492 24.42 144.232 24.46 143.979 24.54C143.739 24.6067 143.519 24.7133 143.319 24.86C143.132 24.9933 142.979 25.1667 142.859 25.38C142.739 25.58 142.679 25.82 142.679 26.1V33H140.119V18.2ZM165.403 33L164.283 29.44H159.323L158.223 33H155.543L160.223 19.04H163.503L168.143 33H165.403ZM161.843 21.44H161.743L159.963 27.18H163.643L161.843 21.44ZM173.008 33C172.128 33 171.454 32.7733 170.988 32.32C170.534 31.8533 170.308 31.1933 170.308 30.34V24.6H168.768V22.56H169.568C169.954 22.56 170.214 22.4733 170.348 22.3C170.494 22.1133 170.568 21.84 170.568 21.48V19.7H172.868V22.56H175.008V24.6H172.868V30.96H174.848V33H173.008ZM177.228 33V22.56H179.788V24.72H179.888C179.955 24.44 180.055 24.1733 180.188 23.92C180.335 23.6533 180.521 23.42 180.748 23.22C180.975 23.02 181.241 22.86 181.548 22.74C181.868 22.62 182.235 22.56 182.648 22.56H183.208V24.98H182.408C181.541 24.98 180.888 25.1067 180.448 25.36C180.008 25.6133 179.788 26.0267 179.788 26.6V33H177.228ZM186.36 21.04C185.826 21.04 185.44 20.92 185.2 20.68C184.973 20.44 184.86 20.1333 184.86 19.76V19.36C184.86 18.9867 184.973 18.68 185.2 18.44C185.44 18.2 185.826 18.08 186.36 18.08C186.88 18.08 187.26 18.2 187.5 18.44C187.74 18.68 187.86 18.9867 187.86 19.36V19.76C187.86 20.1333 187.74 20.44 187.5 20.68C187.26 20.92 186.88 21.04 186.36 21.04ZM185.08 22.56H187.64V33H185.08V22.56Z" fill="#1E40AF"/>
<path d="M22.9613 36H17L22.9613 13H29L22.9613 36Z" fill="#1E40AF" stroke="#1E40AF"/>
<rect x="29" y="32" width="8" height="4" fill="#1E40AF"/>
<defs>
<linearGradient id="paint0_linear_1457_580" x1="0" y1="25" x2="210" y2="25" gradientUnits="userSpaceOnUse">
<stop stop-color="#FFD6C1"/>
<stop offset="1" stop-color="#FCB7B8"/>
</linearGradient>
</defs>
</svg>
