<svg width="180" height="50" viewBox="0 0 180 50" fill="none" xmlns="http://www.w3.org/2000/svg">
<rect width="180" height="50" rx="6" fill="url(#paint0_linear_1457_580)"/>
<path d="M63.6424 22.984H63.5784L62.7144 24.76L60.4264 28.984L58.1384 24.76L57.2744 22.984H57.2104V31H55.2104V19.832H57.5944L60.4584 25.288H60.5224L63.3544 19.832H65.6424V31H63.6424V22.984ZM74.2889 31C73.8409 31 73.4836 30.872 73.2169 30.616C72.9609 30.3493 72.8009 29.9973 72.7369 29.56H72.6409C72.5023 30.104 72.2196 30.5147 71.7929 30.792C71.3663 31.0587 70.8383 31.192 70.2089 31.192C69.3556 31.192 68.6996 30.968 68.2409 30.52C67.7823 30.072 67.5529 29.4747 67.5529 28.728C67.5529 27.864 67.8623 27.224 68.4809 26.808C69.0996 26.3813 69.9796 26.168 71.1209 26.168H72.5449V25.56C72.5449 25.0907 72.4223 24.728 72.1769 24.472C71.9316 24.216 71.5369 24.088 70.9929 24.088C70.5129 24.088 70.1236 24.1947 69.8249 24.408C69.5369 24.6107 69.2916 24.856 69.0889 25.144L67.8729 24.056C68.1823 23.576 68.5929 23.192 69.1049 22.904C69.6169 22.6053 70.2943 22.456 71.1369 22.456C72.2676 22.456 73.1263 22.712 73.7129 23.224C74.2996 23.736 74.5929 24.472 74.5929 25.432V29.368H75.4249V31H74.2889ZM70.8969 29.704C71.3556 29.704 71.7449 29.6027 72.0649 29.4C72.3849 29.1973 72.5449 28.8987 72.5449 28.504V27.4H71.2329C70.1663 27.4 69.6329 27.7413 69.6329 28.424V28.696C69.6329 29.0373 69.7396 29.2933 69.9529 29.464C70.1769 29.624 70.4916 29.704 70.8969 29.704ZM82.2664 29.608H82.1864C82.0371 30.088 81.7544 30.472 81.3384 30.76C80.9224 31.048 80.4371 31.192 79.8824 31.192C78.8264 31.192 78.0158 30.8133 77.4504 30.056C76.8958 29.2987 76.6184 28.216 76.6184 26.808C76.6184 25.4107 76.8958 24.3387 77.4504 23.592C78.0158 22.8347 78.8264 22.456 79.8824 22.456C80.4371 22.456 80.9224 22.6 81.3384 22.888C81.7544 23.1653 82.0371 23.544 82.1864 24.024H82.2664V19.16H84.3144V31H82.2664V29.608ZM80.5384 29.496C81.0291 29.496 81.4398 29.3787 81.7704 29.144C82.1011 28.9093 82.2664 28.5733 82.2664 28.136V25.48C82.2664 25.0747 82.1011 24.7493 81.7704 24.504C81.4398 24.2587 81.0291 24.136 80.5384 24.136C80.0051 24.136 79.5731 24.3173 79.2424 24.68C78.9224 25.032 78.7624 25.5067 78.7624 26.104V27.544C78.7624 28.1413 78.9224 28.616 79.2424 28.968C79.5731 29.32 80.0051 29.496 80.5384 29.496ZM90.0522 31.192C89.4335 31.192 88.8789 31.0907 88.3882 30.888C87.9082 30.6747 87.4975 30.3813 87.1562 30.008C86.8255 29.624 86.5695 29.1653 86.3882 28.632C86.2069 28.088 86.1162 27.48 86.1162 26.808C86.1162 26.1467 86.2015 25.5493 86.3722 25.016C86.5535 24.4827 86.8095 24.0293 87.1402 23.656C87.4709 23.272 87.8762 22.9787 88.3562 22.776C88.8362 22.5627 89.3802 22.456 89.9882 22.456C90.6389 22.456 91.2042 22.568 91.6842 22.792C92.1642 23.016 92.5589 23.32 92.8682 23.704C93.1775 24.088 93.4069 24.536 93.5562 25.048C93.7162 25.5493 93.7962 26.088 93.7962 26.664V27.336H88.2442V27.544C88.2442 28.152 88.4149 28.6427 88.7562 29.016C89.0975 29.3787 89.6042 29.56 90.2762 29.56C90.7882 29.56 91.2042 29.4533 91.5242 29.24C91.8549 29.0267 92.1482 28.7547 92.4042 28.424L93.5082 29.656C93.1669 30.136 92.6975 30.5147 92.1002 30.792C91.5135 31.0587 90.8309 31.192 90.0522 31.192ZM90.0202 23.992C89.4762 23.992 89.0442 24.1733 88.7242 24.536C88.4042 24.8987 88.2442 25.368 88.2442 25.944V26.072H91.6682V25.928C91.6682 25.352 91.5242 24.888 91.2362 24.536C90.9589 24.1733 90.5535 23.992 90.0202 23.992ZM98.5633 22.648H100.531L101.379 26.088L102.035 28.952H102.099L102.867 26.088L103.843 22.648H105.699L106.707 26.088L107.491 28.952H107.555L108.211 26.088L109.043 22.648H110.947L108.659 31H106.451L105.379 27.32L104.755 25.048H104.707L104.099 27.32L103.043 31H100.867L98.5633 22.648ZM113.513 21.432C113.086 21.432 112.777 21.336 112.585 21.144C112.403 20.952 112.313 20.7067 112.313 20.408V20.088C112.313 19.7893 112.403 19.544 112.585 19.352C112.777 19.16 113.086 19.064 113.513 19.064C113.929 19.064 114.233 19.16 114.425 19.352C114.617 19.544 114.713 19.7893 114.713 20.088V20.408C114.713 20.7067 114.617 20.952 114.425 21.144C114.233 21.336 113.929 21.432 113.513 21.432ZM112.489 22.648H114.537V31H112.489V22.648ZM119.519 31C118.815 31 118.276 30.8187 117.903 30.456C117.54 30.0827 117.359 29.5547 117.359 28.872V24.28H116.127V22.648H116.767C117.076 22.648 117.284 22.5787 117.391 22.44C117.508 22.2907 117.567 22.072 117.567 21.784V20.36H119.407V22.648H121.119V24.28H119.407V29.368H120.991V31H119.519ZM122.895 19.16H124.943V24.04H125.023C125.194 23.592 125.46 23.2187 125.823 22.92C126.196 22.6107 126.708 22.456 127.359 22.456C128.223 22.456 128.884 22.7387 129.343 23.304C129.802 23.8693 130.031 24.6747 130.031 25.72V31H127.983V25.928C127.983 25.3307 127.876 24.8827 127.663 24.584C127.45 24.2853 127.098 24.136 126.607 24.136C126.394 24.136 126.186 24.168 125.983 24.232C125.791 24.2853 125.615 24.3707 125.455 24.488C125.306 24.5947 125.183 24.7333 125.087 24.904C124.991 25.064 124.943 25.256 124.943 25.48V31H122.895V19.16ZM143.122 31L142.226 28.152H138.258L137.378 31H135.234L138.978 19.832H141.602L145.314 31H143.122ZM140.274 21.752H140.194L138.77 26.344H141.714L140.274 21.752ZM149.206 31C148.502 31 147.963 30.8187 147.59 30.456C147.227 30.0827 147.046 29.5547 147.046 28.872V24.28H145.814V22.648H146.454C146.763 22.648 146.971 22.5787 147.078 22.44C147.195 22.2907 147.254 22.072 147.254 21.784V20.36H149.094V22.648H150.806V24.28H149.094V29.368H150.678V31H149.206ZM152.582 31V22.648H154.63V24.376H154.71C154.764 24.152 154.844 23.9387 154.95 23.736C155.068 23.5227 155.217 23.336 155.398 23.176C155.58 23.016 155.793 22.888 156.038 22.792C156.294 22.696 156.588 22.648 156.918 22.648H157.366V24.584H156.726C156.033 24.584 155.51 24.6853 155.158 24.888C154.806 25.0907 154.63 25.4213 154.63 25.88V31H152.582ZM159.888 21.432C159.461 21.432 159.152 21.336 158.96 21.144C158.778 20.952 158.688 20.7067 158.688 20.408V20.088C158.688 19.7893 158.778 19.544 158.96 19.352C159.152 19.16 159.461 19.064 159.888 19.064C160.304 19.064 160.608 19.16 160.8 19.352C160.992 19.544 161.088 19.7893 161.088 20.088V20.408C161.088 20.7067 160.992 20.952 160.8 21.144C160.608 21.336 160.304 21.432 159.888 21.432ZM158.864 22.648H160.912V31H158.864V22.648Z" fill="#1E40AF"/>
<path d="M22.9613 36H17L22.9613 13H29L22.9613 36Z" fill="#1E40AF" stroke="#1E40AF"/>
<rect x="29" y="32" width="8" height="4" fill="#1E40AF"/>
<defs>
<linearGradient id="paint0_linear_1457_580" x1="0" y1="25" x2="180" y2="25" gradientUnits="userSpaceOnUse">
<stop stop-color="#FFD6C1"/>
<stop offset="1" stop-color="#FCB7B8"/>
</linearGradient>
</defs>
</svg>
