<svg width="574" height="319" viewBox="0 0 574 319" fill="none" xmlns="http://www.w3.org/2000/svg">
<rect width="574" height="319" rx="8" fill="#FCE7F3"/>
<rect x="40" y="40" width="494" height="239" rx="8" fill="black"/>
<path d="M68.496 103.744C68.8907 103.744 69.2587 103.677 69.6 103.544C69.9413 103.405 70.2667 103.227 70.576 103.008L71.408 104.16C71.04 104.475 70.592 104.731 70.064 104.928C69.5413 105.12 69 105.216 68.44 105.216C67.576 105.216 66.8373 105.035 66.224 104.672C65.6107 104.304 65.1413 103.789 64.816 103.128C64.4907 102.467 64.328 101.696 64.328 100.816C64.328 99.9573 64.4907 99.192 64.816 98.52C65.1467 97.8427 65.6213 97.3093 66.24 96.92C66.8587 96.5253 67.6027 96.328 68.472 96.328C69.048 96.328 69.5787 96.4133 70.064 96.584C70.5493 96.7547 70.9947 97.008 71.4 97.344L70.576 98.472C70.2453 98.2427 69.9067 98.0693 69.56 97.952C69.2187 97.8293 68.8667 97.768 68.504 97.768C67.8373 97.768 67.2907 98.0133 66.864 98.504C66.4427 98.9947 66.232 99.7653 66.232 100.816C66.232 101.52 66.328 102.088 66.52 102.52C66.7173 102.947 66.9867 103.259 67.328 103.456C67.6693 103.648 68.0587 103.744 68.496 103.744ZM78.2097 93.16V102.696C78.2097 103.085 78.3271 103.363 78.5617 103.528C78.8017 103.688 79.1111 103.768 79.4897 103.768C79.7351 103.768 79.9671 103.741 80.1858 103.688C80.4044 103.635 80.6178 103.568 80.8257 103.488L81.2817 104.736C81.0311 104.864 80.7217 104.976 80.3537 105.072C79.9911 105.168 79.5751 105.216 79.1057 105.216C78.2577 105.216 77.5964 104.979 77.1217 104.504C76.6524 104.024 76.4177 103.368 76.4177 102.536V94.48H73.8657V93.16H78.2097ZM91.0275 102.928C91.0275 103.259 91.0782 103.501 91.1795 103.656C91.2808 103.805 91.4435 103.917 91.6675 103.992L91.2675 105.208C90.8515 105.16 90.4942 105.045 90.1955 104.864C89.8968 104.683 89.6702 104.408 89.5155 104.04C89.2062 104.429 88.8142 104.723 88.3395 104.92C87.8648 105.117 87.3582 105.216 86.8195 105.216C85.9662 105.216 85.2888 104.976 84.7875 104.496C84.2915 104.011 84.0435 103.376 84.0435 102.592C84.0435 101.701 84.3902 101.016 85.0835 100.536C85.7768 100.056 86.7688 99.816 88.0595 99.816H89.2675V99.264C89.2675 98.72 89.1022 98.328 88.7715 98.088C88.4462 97.848 87.9848 97.728 87.3875 97.728C87.1102 97.728 86.7742 97.7653 86.3795 97.84C85.9848 97.9093 85.5715 98.0187 85.1395 98.168L84.6995 96.904C85.2275 96.7067 85.7448 96.5627 86.2515 96.472C86.7582 96.376 87.2275 96.328 87.6595 96.328C88.7902 96.328 89.6328 96.5787 90.1875 97.08C90.7475 97.5813 91.0275 98.2747 91.0275 99.16V102.928ZM87.3635 103.896C87.7262 103.896 88.0808 103.8 88.4275 103.608C88.7742 103.416 89.0542 103.147 89.2675 102.8V100.936H88.2755C87.4328 100.936 86.8302 101.077 86.4675 101.36C86.1048 101.637 85.9235 102.021 85.9235 102.512C85.9235 102.96 86.0435 103.304 86.2835 103.544C86.5288 103.779 86.8888 103.896 87.3635 103.896ZM97.7173 103.84C98.2773 103.84 98.7226 103.741 99.0533 103.544C99.3839 103.341 99.5493 103.064 99.5493 102.712C99.5493 102.483 99.5013 102.288 99.4053 102.128C99.3093 101.963 99.1173 101.813 98.8293 101.68C98.5413 101.541 98.1039 101.397 97.5173 101.248C96.9626 101.104 96.4746 100.933 96.0533 100.736C95.6373 100.539 95.3146 100.283 95.0853 99.968C94.8559 99.6533 94.7413 99.248 94.7413 98.752C94.7413 98.2667 94.8773 97.8427 95.1493 97.48C95.4213 97.1173 95.8106 96.8347 96.3173 96.632C96.8293 96.4293 97.4293 96.328 98.1173 96.328C98.8266 96.328 99.4453 96.4213 99.9733 96.608C100.501 96.7947 100.952 97.0267 101.325 97.304L100.573 98.432C100.243 98.2133 99.8799 98.0347 99.4853 97.896C99.0959 97.7573 98.6559 97.688 98.1653 97.688C97.5946 97.688 97.1839 97.7733 96.9333 97.944C96.6879 98.1147 96.5653 98.3413 96.5653 98.624C96.5653 98.832 96.6266 99.008 96.7493 99.152C96.8773 99.2907 97.0959 99.4213 97.4053 99.544C97.7146 99.6613 98.1519 99.8 98.7173 99.96C99.2666 100.109 99.7439 100.285 100.149 100.488C100.56 100.691 100.877 100.96 101.101 101.296C101.331 101.627 101.445 102.059 101.445 102.592C101.445 103.2 101.269 103.699 100.917 104.088C100.571 104.472 100.112 104.757 99.5413 104.944C98.9759 105.125 98.3679 105.216 97.7173 105.216C96.9333 105.216 96.2559 105.104 95.6853 104.88C95.1146 104.651 94.6346 104.365 94.2453 104.024L95.1973 102.936C95.5279 103.203 95.9066 103.421 96.3333 103.592C96.7599 103.757 97.2213 103.84 97.7173 103.84ZM107.791 103.84C108.351 103.84 108.796 103.741 109.127 103.544C109.458 103.341 109.623 103.064 109.623 102.712C109.623 102.483 109.575 102.288 109.479 102.128C109.383 101.963 109.191 101.813 108.903 101.68C108.615 101.541 108.178 101.397 107.591 101.248C107.036 101.104 106.548 100.933 106.127 100.736C105.711 100.539 105.388 100.283 105.159 99.968C104.93 99.6533 104.815 99.248 104.815 98.752C104.815 98.2667 104.951 97.8427 105.223 97.48C105.495 97.1173 105.884 96.8347 106.391 96.632C106.903 96.4293 107.503 96.328 108.191 96.328C108.9 96.328 109.519 96.4213 110.047 96.608C110.575 96.7947 111.026 97.0267 111.399 97.304L110.647 98.432C110.316 98.2133 109.954 98.0347 109.559 97.896C109.17 97.7573 108.73 97.688 108.239 97.688C107.668 97.688 107.258 97.7733 107.007 97.944C106.762 98.1147 106.639 98.3413 106.639 98.624C106.639 98.832 106.7 99.008 106.823 99.152C106.951 99.2907 107.17 99.4213 107.479 99.544C107.788 99.6613 108.226 99.8 108.791 99.96C109.34 100.109 109.818 100.285 110.223 100.488C110.634 100.691 110.951 100.96 111.175 101.296C111.404 101.627 111.519 102.059 111.519 102.592C111.519 103.2 111.343 103.699 110.991 104.088C110.644 104.472 110.186 104.757 109.615 104.944C109.05 105.125 108.442 105.216 107.791 105.216C107.007 105.216 106.33 105.104 105.759 104.88C105.188 104.651 104.708 104.365 104.319 104.024L105.271 102.936C105.602 103.203 105.98 103.421 106.407 103.592C106.834 103.757 107.295 103.84 107.791 103.84ZM130.179 102.344H126.235L125.467 105H123.579L127.091 93.96H129.395L132.915 105H130.947L130.179 102.344ZM126.619 100.912H129.787L128.211 95.4L126.619 100.912ZM141.996 104.552C141.687 104.749 141.316 104.909 140.884 105.032C140.452 105.155 140.002 105.216 139.532 105.216C138.551 105.216 137.804 104.963 137.292 104.456C136.786 103.944 136.532 103.272 136.532 102.44V97.856H134.652V96.552H136.532V94.664L138.324 94.448V96.552H141.172L140.972 97.856H138.324V102.424C138.324 102.877 138.436 103.216 138.66 103.44C138.89 103.659 139.263 103.768 139.78 103.768C140.09 103.768 140.375 103.731 140.636 103.656C140.898 103.581 141.135 103.485 141.348 103.368L141.996 104.552ZM145.094 105V103.72H146.334V97.824H145.094V96.552H147.702L148.03 98.512C148.345 97.8027 148.734 97.264 149.198 96.896C149.667 96.5227 150.27 96.336 151.006 96.336C151.257 96.336 151.481 96.3573 151.678 96.4C151.881 96.4373 152.081 96.488 152.278 96.552L151.742 98.088C151.571 98.04 151.411 98.0053 151.262 97.984C151.113 97.9573 150.947 97.944 150.766 97.944C150.153 97.944 149.622 98.1733 149.174 98.632C148.731 99.0907 148.382 99.7413 148.126 100.584V103.72H149.83V105H145.094ZM150.694 99.664V97.584L150.918 96.552H152.278L151.974 99.664H150.694ZM159.704 96.552V103.688H162V105H155.384V103.688H157.912V97.864H155.464V96.552H159.704ZM158.456 92.416C158.808 92.416 159.09 92.5227 159.304 92.736C159.522 92.9493 159.632 93.216 159.632 93.536C159.632 93.856 159.522 94.1253 159.304 94.344C159.09 94.5627 158.808 94.672 158.456 94.672C158.114 94.672 157.834 94.5627 157.616 94.344C157.397 94.1253 157.288 93.856 157.288 93.536C157.288 93.216 157.397 92.9493 157.616 92.736C157.834 92.5227 158.114 92.416 158.456 92.416ZM167.09 103.768C167.09 103.379 167.228 103.045 167.506 102.768C167.783 102.485 168.124 102.344 168.53 102.344C168.94 102.344 169.282 102.485 169.554 102.768C169.831 103.045 169.97 103.379 169.97 103.768C169.97 104.168 169.831 104.509 169.554 104.792C169.282 105.075 168.94 105.216 168.53 105.216C168.124 105.216 167.783 105.075 167.506 104.792C167.228 104.509 167.09 104.168 167.09 103.768ZM167.09 98.088C167.09 97.8267 167.154 97.5867 167.282 97.368C167.41 97.1493 167.583 96.976 167.802 96.848C168.02 96.72 168.263 96.656 168.53 96.656C168.94 96.656 169.282 96.7973 169.554 97.08C169.831 97.3573 169.97 97.6933 169.97 98.088C169.97 98.4827 169.831 98.824 169.554 99.112C169.282 99.3947 168.94 99.536 168.53 99.536C168.124 99.536 167.783 99.3947 167.506 99.112C167.228 98.824 167.09 98.4827 167.09 98.088ZM109.679 134.96L111.471 135.16V147H109.895L109.767 145.96C109.479 146.36 109.135 146.669 108.735 146.888C108.335 147.107 107.887 147.216 107.391 147.216C106.666 147.216 106.068 147.032 105.599 146.664C105.13 146.291 104.78 145.771 104.551 145.104C104.327 144.432 104.215 143.656 104.215 142.776C104.215 141.917 104.348 141.155 104.615 140.488C104.882 139.816 105.263 139.288 105.759 138.904C106.255 138.52 106.852 138.328 107.551 138.328C107.994 138.328 108.391 138.408 108.743 138.568C109.095 138.723 109.407 138.949 109.679 139.248V134.96ZM108.023 139.704C107.42 139.704 106.951 139.955 106.615 140.456C106.279 140.952 106.111 141.725 106.111 142.776C106.111 143.496 106.18 144.083 106.319 144.536C106.458 144.984 106.658 145.315 106.919 145.528C107.18 145.736 107.495 145.84 107.863 145.84C108.268 145.84 108.62 145.723 108.919 145.488C109.218 145.253 109.471 144.971 109.679 144.64V140.64C109.471 140.341 109.228 140.112 108.951 139.952C108.674 139.787 108.364 139.704 108.023 139.704ZM116.281 143.352C116.318 143.928 116.441 144.4 116.649 144.768C116.857 145.131 117.129 145.397 117.465 145.568C117.806 145.739 118.179 145.824 118.585 145.824C119.001 145.824 119.385 145.76 119.737 145.632C120.089 145.504 120.443 145.323 120.801 145.088L121.577 146.16C121.182 146.48 120.721 146.736 120.193 146.928C119.665 147.12 119.099 147.216 118.497 147.216C117.622 147.216 116.881 147.029 116.273 146.656C115.67 146.283 115.211 145.763 114.897 145.096C114.582 144.429 114.425 143.659 114.425 142.784C114.425 141.936 114.579 141.179 114.889 140.512C115.198 139.84 115.641 139.309 116.217 138.92C116.793 138.525 117.481 138.328 118.281 138.328C119.033 138.328 119.678 138.499 120.217 138.84C120.761 139.181 121.179 139.667 121.473 140.296C121.771 140.92 121.921 141.672 121.921 142.552C121.921 142.696 121.915 142.84 121.905 142.984C121.899 143.123 121.891 143.245 121.881 143.352H116.281ZM118.297 139.656C117.737 139.656 117.273 139.856 116.905 140.256C116.542 140.656 116.331 141.28 116.273 142.128H120.185C120.169 141.333 119.998 140.723 119.673 140.296C119.353 139.869 118.894 139.656 118.297 139.656ZM130.003 134.96C130.52 134.96 130.981 135.005 131.387 135.096C131.797 135.181 132.176 135.299 132.523 135.448L131.995 136.688C131.712 136.571 131.416 136.485 131.107 136.432C130.803 136.379 130.493 136.352 130.179 136.352C129.624 136.352 129.213 136.459 128.947 136.672C128.68 136.88 128.547 137.211 128.547 137.664V139.16H131.371L131.179 140.48H128.547V147H126.763V140.48H124.843V139.16H126.763V137.648C126.763 137.115 126.896 136.648 127.163 136.248C127.435 135.843 127.813 135.528 128.299 135.304C128.784 135.075 129.352 134.96 130.003 134.96Z" fill="#BFDBFE"/>
<path d="M358.491 145.768C358.491 145.379 358.629 145.045 358.907 144.768C359.184 144.485 359.525 144.344 359.931 144.344C360.341 144.344 360.683 144.485 360.955 144.768C361.232 145.045 361.371 145.379 361.371 145.768C361.371 146.168 361.232 146.509 360.955 146.792C360.683 147.075 360.341 147.216 359.931 147.216C359.525 147.216 359.184 147.075 358.907 146.792C358.629 146.509 358.491 146.168 358.491 145.768ZM358.491 140.088C358.491 139.827 358.555 139.587 358.683 139.368C358.811 139.149 358.984 138.976 359.203 138.848C359.421 138.72 359.664 138.656 359.931 138.656C360.341 138.656 360.683 138.797 360.955 139.08C361.232 139.357 361.371 139.693 361.371 140.088C361.371 140.483 361.232 140.824 360.955 141.112C360.683 141.395 360.341 141.536 359.931 141.536C359.525 141.536 359.184 141.395 358.907 141.112C358.629 140.824 358.491 140.483 358.491 140.088ZM187.133 187.664C187.133 187.376 187.2 187.117 187.333 186.888C187.472 186.653 187.658 186.467 187.893 186.328C188.128 186.189 188.389 186.12 188.677 186.12C188.97 186.12 189.234 186.189 189.469 186.328C189.704 186.467 189.888 186.653 190.021 186.888C190.16 187.117 190.229 187.376 190.229 187.664C190.229 187.947 190.16 188.208 190.021 188.448C189.888 188.683 189.704 188.869 189.469 189.008C189.234 189.147 188.97 189.216 188.677 189.216C188.389 189.216 188.128 189.147 187.893 189.008C187.658 188.869 187.472 188.683 187.333 188.448C187.2 188.208 187.133 187.947 187.133 187.664ZM333.03 181.712V183.176H326.406V181.712H333.03ZM333.03 184.872V186.336H326.406V184.872H333.03ZM187.133 208.664C187.133 208.376 187.2 208.117 187.333 207.888C187.472 207.653 187.658 207.467 187.893 207.328C188.128 207.189 188.389 207.12 188.677 207.12C188.97 207.12 189.234 207.189 189.469 207.328C189.704 207.467 189.888 207.653 190.021 207.888C190.16 208.117 190.229 208.376 190.229 208.664C190.229 208.947 190.16 209.208 190.021 209.448C189.888 209.683 189.704 209.869 189.469 210.008C189.234 210.147 188.97 210.216 188.677 210.216C188.389 210.216 188.128 210.147 187.893 210.008C187.658 209.869 187.472 209.683 187.333 209.448C187.2 209.208 187.133 208.947 187.133 208.664ZM312.882 202.712V204.176H306.258V202.712H312.882ZM312.882 205.872V207.336H306.258V205.872H312.882ZM187.133 229.664C187.133 229.376 187.2 229.117 187.333 228.888C187.472 228.653 187.658 228.467 187.893 228.328C188.128 228.189 188.389 228.12 188.677 228.12C188.97 228.12 189.234 228.189 189.469 228.328C189.704 228.467 189.888 228.653 190.021 228.888C190.16 229.117 190.229 229.376 190.229 229.664C190.229 229.947 190.16 230.208 190.021 230.448C189.888 230.683 189.704 230.869 189.469 231.008C189.234 231.147 188.97 231.216 188.677 231.216C188.389 231.216 188.128 231.147 187.893 231.008C187.658 230.869 187.472 230.683 187.333 230.448C187.2 230.208 187.133 229.947 187.133 229.664ZM272.587 223.712V225.176H265.963V223.712H272.587ZM272.587 226.872V228.336H265.963V226.872H272.587ZM187.133 250.664C187.133 250.376 187.2 250.117 187.333 249.888C187.472 249.653 187.658 249.467 187.893 249.328C188.128 249.189 188.389 249.12 188.677 249.12C188.97 249.12 189.234 249.189 189.469 249.328C189.704 249.467 189.888 249.653 190.021 249.888C190.16 250.117 190.229 250.376 190.229 250.664C190.229 250.947 190.16 251.208 190.021 251.448C189.888 251.683 189.704 251.869 189.469 252.008C189.234 252.147 188.97 252.216 188.677 252.216C188.389 252.216 188.128 252.147 187.893 252.008C187.658 251.869 187.472 251.683 187.333 251.448C187.2 251.208 187.133 250.947 187.133 250.664ZM282.661 244.712V246.176H276.037V244.712H282.661ZM282.661 247.872V249.336H276.037V247.872H282.661Z" fill="white"/>
<path d="M279.349 144.12C279.77 144.12 280.119 144.261 280.397 144.544C280.674 144.821 280.813 145.163 280.813 145.568C280.813 145.808 280.775 146.051 280.701 146.296C280.631 146.536 280.517 146.832 280.357 147.184L279.117 150.016H277.725L278.509 146.768C278.317 146.635 278.167 146.464 278.061 146.256C277.954 146.043 277.901 145.811 277.901 145.56C277.901 145.16 278.039 144.821 278.317 144.544C278.594 144.261 278.938 144.12 279.349 144.12Z" fill="#34D399"/>
<path d="M144.39 149.928V148.448H153.35V149.928H144.39ZM153.504 149.928V148.448H162.464V149.928H153.504ZM169.778 138.552V145.688H172.074V147H165.458V145.688H167.986V139.864H165.538V138.552H169.778ZM168.53 134.416C168.882 134.416 169.164 134.523 169.378 134.736C169.596 134.949 169.706 135.216 169.706 135.536C169.706 135.856 169.596 136.125 169.378 136.344C169.164 136.563 168.882 136.672 168.53 136.672C168.188 136.672 167.908 136.563 167.69 136.344C167.471 136.125 167.362 135.856 167.362 135.536C167.362 135.216 167.471 134.949 167.69 134.736C167.908 134.523 168.188 134.416 168.53 134.416ZM175.235 147V138.552H176.779L176.915 139.648C177.267 139.216 177.683 138.888 178.163 138.664C178.643 138.44 179.137 138.328 179.643 138.328C180.433 138.328 181.022 138.549 181.411 138.992C181.806 139.429 182.003 140.045 182.003 140.84V147H180.211V141.728C180.211 141.237 180.182 140.843 180.123 140.544C180.065 140.245 179.947 140.029 179.771 139.896C179.601 139.763 179.345 139.696 179.003 139.696C178.731 139.696 178.473 139.755 178.227 139.872C177.982 139.989 177.758 140.144 177.555 140.336C177.353 140.523 177.177 140.723 177.027 140.936V147H175.235ZM189.925 138.552V145.688H192.221V147H185.605V145.688H188.133V139.864H185.685V138.552H189.925ZM188.677 134.416C189.029 134.416 189.312 134.523 189.525 134.736C189.744 134.949 189.853 135.216 189.853 135.536C189.853 135.856 189.744 136.125 189.525 136.344C189.312 136.563 189.029 136.672 188.677 136.672C188.336 136.672 188.056 136.563 187.837 136.344C187.618 136.125 187.509 135.856 187.509 135.536C187.509 135.216 187.618 134.949 187.837 134.736C188.056 134.523 188.336 134.416 188.677 134.416ZM202.439 146.552C202.129 146.749 201.759 146.909 201.327 147.032C200.895 147.155 200.444 147.216 199.975 147.216C198.993 147.216 198.247 146.963 197.735 146.456C197.228 145.944 196.975 145.272 196.975 144.44V139.856H195.095V138.552H196.975V136.664L198.767 136.448V138.552H201.615L201.415 139.856H198.767V144.424C198.767 144.877 198.879 145.216 199.103 145.44C199.332 145.659 199.705 145.768 200.223 145.768C200.532 145.768 200.817 145.731 201.079 145.656C201.34 145.581 201.577 145.485 201.791 145.368L202.439 146.552ZM204.833 149.928V148.448H213.793V149.928H204.833ZM213.946 149.928V148.448H222.906V149.928H213.946ZM227.876 141.4C227.876 142.168 227.937 142.864 228.06 143.488C228.188 144.107 228.385 144.685 228.652 145.224C228.919 145.757 229.257 146.28 229.668 146.792C230.084 147.304 230.577 147.835 231.148 148.384L230.156 149.344C229.297 148.629 228.559 147.888 227.94 147.12C227.327 146.357 226.855 145.512 226.524 144.584C226.193 143.656 226.028 142.595 226.028 141.4C226.028 140.2 226.193 139.136 226.524 138.208C226.855 137.28 227.327 136.435 227.94 135.672C228.559 134.904 229.297 134.165 230.156 133.456L231.148 134.416C230.588 134.955 230.1 135.48 229.684 135.992C229.273 136.499 228.932 137.021 228.66 137.56C228.393 138.099 228.196 138.68 228.068 139.304C227.94 139.928 227.876 140.627 227.876 141.4ZM350.969 141.4C350.969 140.627 350.905 139.928 350.777 139.304C350.649 138.68 350.449 138.099 350.177 137.56C349.91 137.021 349.569 136.499 349.153 135.992C348.742 135.48 348.257 134.955 347.697 134.416L348.689 133.456C349.548 134.165 350.284 134.904 350.897 135.672C351.516 136.435 351.99 137.28 352.321 138.208C352.652 139.136 352.817 140.2 352.817 141.4C352.817 142.595 352.652 143.656 352.321 144.584C351.99 145.512 351.516 146.357 350.897 147.12C350.284 147.888 349.548 148.629 348.689 149.344L347.697 148.384C348.268 147.835 348.758 147.304 349.169 146.792C349.585 146.28 349.926 145.757 350.193 145.224C350.46 144.685 350.654 144.107 350.777 143.488C350.905 142.864 350.969 142.168 350.969 141.4ZM348.953 179.368V182.88H353.105V184.288H348.953V189H347.097V177.96H353.889L353.681 179.368H348.953ZM360.275 177.96V186.696C360.275 187.085 360.392 187.363 360.627 187.528C360.867 187.688 361.176 187.768 361.555 187.768C361.8 187.768 362.032 187.741 362.251 187.688C362.469 187.635 362.683 187.568 362.891 187.488L363.347 188.736C363.096 188.864 362.787 188.976 362.419 189.072C362.056 189.168 361.64 189.216 361.171 189.216C360.323 189.216 359.661 188.979 359.187 188.504C358.717 188.024 358.483 187.368 358.483 186.536V179.456H355.931V177.96H360.275ZM368.124 185.352C368.162 185.928 368.284 186.4 368.492 186.768C368.7 187.131 368.972 187.397 369.308 187.568C369.65 187.739 370.023 187.824 370.428 187.824C370.844 187.824 371.228 187.76 371.58 187.632C371.932 187.504 372.287 187.323 372.644 187.088L373.42 188.16C373.026 188.48 372.564 188.736 372.036 188.928C371.508 189.12 370.943 189.216 370.34 189.216C369.466 189.216 368.724 189.029 368.116 188.656C367.514 188.283 367.055 187.763 366.74 187.096C366.426 186.429 366.268 185.659 366.268 184.784C366.268 183.936 366.423 183.179 366.732 182.512C367.042 181.84 367.484 181.309 368.06 180.92C368.636 180.525 369.324 180.328 370.124 180.328C370.876 180.328 371.522 180.499 372.06 180.84C372.604 181.181 373.023 181.667 373.316 182.296C373.615 182.92 373.764 183.672 373.764 184.552C373.764 184.696 373.759 184.84 373.748 184.984C373.743 185.123 373.735 185.245 373.724 185.352H368.124ZM370.14 181.656C369.58 181.656 369.116 181.856 368.748 182.256C368.386 182.656 368.175 183.28 368.116 184.128H372.028C372.012 183.333 371.842 182.723 371.516 182.296C371.196 181.869 370.738 181.656 370.14 181.656ZM377.958 189H375.974L379.006 184.544L376.31 180.552H378.374L380.102 183.528L381.83 180.552H383.798L381.158 184.472L384.198 189H382.094L380.022 185.552L377.958 189ZM389.056 183.4C389.056 184.168 389.117 184.864 389.24 185.488C389.368 186.107 389.565 186.685 389.832 187.224C390.099 187.757 390.437 188.28 390.848 188.792C391.264 189.304 391.757 189.835 392.328 190.384L391.336 191.344C390.477 190.629 389.739 189.888 389.12 189.12C388.507 188.357 388.035 187.512 387.704 186.584C387.373 185.656 387.208 184.595 387.208 183.4C387.208 182.2 387.373 181.136 387.704 180.208C388.035 179.28 388.507 178.435 389.12 177.672C389.739 176.904 390.477 176.165 391.336 175.456L392.328 176.416C391.768 176.955 391.28 177.48 390.864 177.992C390.453 178.499 390.112 179.021 389.84 179.56C389.573 180.099 389.376 180.68 389.248 181.304C389.12 181.928 389.056 182.627 389.056 183.4ZM401.338 183.4C401.338 182.627 401.274 181.928 401.146 181.304C401.018 180.68 400.818 180.099 400.546 179.56C400.279 179.021 399.938 178.499 399.522 177.992C399.111 177.48 398.626 176.955 398.066 176.416L399.058 175.456C399.916 176.165 400.652 176.904 401.266 177.672C401.884 178.435 402.359 179.28 402.69 180.208C403.02 181.136 403.186 182.2 403.186 183.4C403.186 184.595 403.02 185.656 402.69 186.584C402.359 187.512 401.884 188.357 401.266 189.12C400.652 189.888 399.916 190.629 399.058 191.344L398.066 190.384C398.636 189.835 399.127 189.304 399.538 188.792C399.954 188.28 400.295 187.757 400.562 187.224C400.828 186.685 401.023 186.107 401.146 185.488C401.274 184.864 401.338 184.168 401.338 183.4ZM331.806 206.808C331.806 206.312 331.71 205.928 331.518 205.656C331.326 205.384 331.067 205.195 330.742 205.088C330.416 204.976 330.051 204.92 329.646 204.92H328.07V208.56H329.566C329.832 208.56 330.096 208.539 330.358 208.496C330.624 208.448 330.867 208.363 331.086 208.24C331.304 208.112 331.478 207.933 331.606 207.704C331.739 207.475 331.806 207.176 331.806 206.808ZM331.382 201.904C331.382 201.349 331.208 200.952 330.862 200.712C330.515 200.472 330.027 200.352 329.398 200.352H328.07V203.544H329.51C330.128 203.544 330.595 203.416 330.91 203.16C331.224 202.899 331.382 202.48 331.382 201.904ZM333.742 206.816C333.742 207.429 333.622 207.944 333.382 208.36C333.142 208.771 332.816 209.096 332.406 209.336C332 209.576 331.542 209.747 331.03 209.848C330.518 209.949 329.99 210 329.446 210H326.214V198.96H329.23C329.747 198.96 330.246 199.005 330.726 199.096C331.206 199.181 331.635 199.331 332.014 199.544C332.398 199.757 332.702 200.045 332.926 200.408C333.15 200.765 333.262 201.213 333.262 201.752C333.262 202.216 333.166 202.611 332.974 202.936C332.782 203.261 332.528 203.525 332.214 203.728C331.904 203.925 331.574 204.067 331.222 204.152C331.622 204.216 332.014 204.341 332.398 204.528C332.787 204.709 333.107 204.984 333.358 205.352C333.614 205.72 333.742 206.208 333.742 206.816ZM338.207 201.552V207.456C338.207 207.957 338.306 208.315 338.503 208.528C338.706 208.741 339.01 208.848 339.415 208.848C339.799 208.848 340.17 208.733 340.527 208.504C340.885 208.275 341.167 207.995 341.375 207.664V201.552H343.167V210H341.623L341.511 208.92C341.197 209.341 340.799 209.664 340.319 209.888C339.839 210.107 339.349 210.216 338.847 210.216C338.031 210.216 337.421 209.992 337.015 209.544C336.615 209.091 336.415 208.469 336.415 207.68V201.552H338.207ZM353.545 209.552C353.236 209.749 352.865 209.909 352.433 210.032C352.001 210.155 351.55 210.216 351.081 210.216C350.1 210.216 349.353 209.963 348.841 209.456C348.334 208.944 348.081 208.272 348.081 207.44V202.856H346.201V201.552H348.081V199.664L349.873 199.448V201.552H352.721L352.521 202.856H349.873V207.424C349.873 207.877 349.985 208.216 350.209 208.44C350.438 208.659 350.812 208.768 351.329 208.768C351.638 208.768 351.924 208.731 352.185 208.656C352.446 208.581 352.684 208.485 352.897 208.368L353.545 209.552ZM363.619 209.552C363.309 209.749 362.939 209.909 362.507 210.032C362.075 210.155 361.624 210.216 361.155 210.216C360.173 210.216 359.427 209.963 358.915 209.456C358.408 208.944 358.155 208.272 358.155 207.44V202.856H356.275V201.552H358.155V199.664L359.947 199.448V201.552H362.795L362.595 202.856H359.947V207.424C359.947 207.877 360.059 208.216 360.283 208.44C360.512 208.659 360.885 208.768 361.403 208.768C361.712 208.768 361.997 208.731 362.259 208.656C362.52 208.581 362.757 208.485 362.971 208.368L363.619 209.552ZM370.02 201.328C370.847 201.328 371.543 201.512 372.108 201.88C372.674 202.248 373.1 202.763 373.388 203.424C373.682 204.085 373.828 204.864 373.828 205.76C373.828 206.651 373.679 207.432 373.38 208.104C373.087 208.771 372.655 209.291 372.084 209.664C371.519 210.032 370.828 210.216 370.012 210.216C369.196 210.216 368.503 210.037 367.932 209.68C367.367 209.317 366.935 208.803 366.636 208.136C366.343 207.469 366.196 206.683 366.196 205.776C366.196 204.896 366.343 204.123 366.636 203.456C366.935 202.789 367.37 202.269 367.94 201.896C368.511 201.517 369.204 201.328 370.02 201.328ZM370.02 202.72C369.375 202.72 368.89 202.968 368.564 203.464C368.239 203.955 368.076 204.725 368.076 205.776C368.076 206.821 368.236 207.592 368.556 208.088C368.882 208.584 369.367 208.832 370.012 208.832C370.658 208.832 371.14 208.584 371.46 208.088C371.786 207.592 371.948 206.816 371.948 205.76C371.948 204.72 371.788 203.955 371.468 203.464C371.148 202.968 370.666 202.72 370.02 202.72ZM376.71 210V201.552H378.254L378.39 202.648C378.742 202.216 379.158 201.888 379.638 201.664C380.118 201.44 380.612 201.328 381.118 201.328C381.908 201.328 382.497 201.549 382.886 201.992C383.281 202.429 383.478 203.045 383.478 203.84V210H381.686V204.728C381.686 204.237 381.657 203.843 381.598 203.544C381.54 203.245 381.422 203.029 381.246 202.896C381.076 202.763 380.82 202.696 380.478 202.696C380.206 202.696 379.948 202.755 379.702 202.872C379.457 202.989 379.233 203.144 379.03 203.336C378.828 203.523 378.652 203.723 378.502 203.936V210H376.71ZM389.056 204.4C389.056 205.168 389.117 205.864 389.24 206.488C389.368 207.107 389.565 207.685 389.832 208.224C390.099 208.757 390.437 209.28 390.848 209.792C391.264 210.304 391.757 210.835 392.328 211.384L391.336 212.344C390.477 211.629 389.739 210.888 389.12 210.12C388.507 209.357 388.035 208.512 387.704 207.584C387.373 206.656 387.208 205.595 387.208 204.4C387.208 203.2 387.373 202.136 387.704 201.208C388.035 200.28 388.507 199.435 389.12 198.672C389.739 197.904 390.477 197.165 391.336 196.456L392.328 197.416C391.768 197.955 391.28 198.48 390.864 198.992C390.453 199.499 390.112 200.021 389.84 200.56C389.573 201.099 389.376 201.68 389.248 202.304C389.12 202.928 389.056 203.627 389.056 204.4ZM401.338 204.4C401.338 203.627 401.274 202.928 401.146 202.304C401.018 201.68 400.818 201.099 400.546 200.56C400.279 200.021 399.938 199.499 399.522 198.992C399.111 198.48 398.626 197.955 398.066 197.416L399.058 196.456C399.916 197.165 400.652 197.904 401.266 198.672C401.884 199.435 402.359 200.28 402.69 201.208C403.02 202.136 403.186 203.2 403.186 204.4C403.186 205.595 403.02 206.656 402.69 207.584C402.359 208.512 401.884 209.357 401.266 210.12C400.652 210.888 399.916 211.629 399.058 212.344L398.066 211.384C398.636 210.835 399.127 210.304 399.538 209.792C399.954 209.28 400.295 208.757 400.562 208.224C400.828 207.685 401.023 207.107 401.146 206.488C401.274 205.864 401.338 205.168 401.338 204.4ZM292.742 219.96V221.376H290.358V229.576H292.742V231H286.102V229.576H288.486V221.376H286.102V219.96H292.742ZM301.944 222.328C302.264 222.328 302.552 222.397 302.808 222.536C303.064 222.675 303.264 222.917 303.408 223.264C303.558 223.611 303.632 224.096 303.632 224.72V231H302.04V224.968C302.04 224.525 302.008 224.208 301.944 224.016C301.886 223.824 301.728 223.728 301.472 223.728C301.27 223.728 301.064 223.792 300.856 223.92C300.648 224.043 300.438 224.256 300.224 224.56V231H298.776V224.968C298.776 224.525 298.744 224.208 298.68 224.016C298.622 223.824 298.464 223.728 298.208 223.728C298 223.728 297.792 223.792 297.584 223.92C297.382 224.043 297.174 224.256 296.96 224.56V231H295.36V222.552H296.712L296.832 223.464C297.072 223.128 297.334 222.856 297.616 222.648C297.899 222.435 298.24 222.328 298.64 222.328C298.96 222.328 299.251 222.408 299.512 222.568C299.774 222.728 299.966 223.008 300.088 223.408C300.323 223.088 300.59 222.829 300.888 222.632C301.187 222.429 301.539 222.328 301.944 222.328ZM312.65 228.928C312.65 229.259 312.701 229.501 312.802 229.656C312.903 229.805 313.066 229.917 313.29 229.992L312.89 231.208C312.474 231.16 312.117 231.045 311.818 230.864C311.519 230.683 311.293 230.408 311.138 230.04C310.829 230.429 310.437 230.723 309.962 230.92C309.487 231.117 308.981 231.216 308.442 231.216C307.589 231.216 306.911 230.976 306.41 230.496C305.914 230.011 305.666 229.376 305.666 228.592C305.666 227.701 306.013 227.016 306.706 226.536C307.399 226.056 308.391 225.816 309.682 225.816H310.89V225.264C310.89 224.72 310.725 224.328 310.394 224.088C310.069 223.848 309.607 223.728 309.01 223.728C308.733 223.728 308.397 223.765 308.002 223.84C307.607 223.909 307.194 224.019 306.762 224.168L306.322 222.904C306.85 222.707 307.367 222.563 307.874 222.472C308.381 222.376 308.85 222.328 309.282 222.328C310.413 222.328 311.255 222.579 311.81 223.08C312.37 223.581 312.65 224.275 312.65 225.16V228.928ZM308.986 229.896C309.349 229.896 309.703 229.8 310.05 229.608C310.397 229.416 310.677 229.147 310.89 228.8V226.936H309.898C309.055 226.936 308.453 227.077 308.09 227.36C307.727 227.637 307.546 228.021 307.546 228.512C307.546 228.96 307.666 229.304 307.906 229.544C308.151 229.779 308.511 229.896 308.986 229.896ZM323.38 221.48L323.86 222.968C323.524 223.08 323.153 223.155 322.748 223.192C322.348 223.229 321.9 223.248 321.404 223.248C321.91 223.472 322.292 223.76 322.548 224.112C322.804 224.459 322.932 224.885 322.932 225.392C322.932 225.941 322.798 226.432 322.532 226.864C322.265 227.296 321.884 227.635 321.388 227.88C320.892 228.125 320.297 228.248 319.604 228.248C319.358 228.248 319.145 228.237 318.964 228.216C318.788 228.195 318.614 228.16 318.444 228.112C318.337 228.187 318.246 228.288 318.172 228.416C318.102 228.539 318.068 228.669 318.068 228.808C318.068 228.979 318.137 229.128 318.276 229.256C318.42 229.379 318.702 229.44 319.124 229.44H320.596C321.198 229.44 321.729 229.544 322.188 229.752C322.652 229.955 323.014 230.235 323.276 230.592C323.542 230.944 323.676 231.344 323.676 231.792C323.676 232.635 323.313 233.288 322.588 233.752C321.862 234.216 320.817 234.448 319.452 234.448C318.486 234.448 317.729 234.349 317.18 234.152C316.63 233.955 316.244 233.661 316.02 233.272C315.796 232.883 315.684 232.405 315.684 231.84H317.292C317.292 232.133 317.348 232.376 317.46 232.568C317.577 232.76 317.793 232.904 318.108 233C318.422 233.096 318.876 233.144 319.468 233.144C320.06 233.144 320.529 233.093 320.876 232.992C321.228 232.896 321.481 232.755 321.636 232.568C321.796 232.387 321.876 232.168 321.876 231.912C321.876 231.571 321.726 231.307 321.428 231.12C321.129 230.933 320.729 230.84 320.228 230.84H318.78C317.98 230.84 317.393 230.677 317.02 230.352C316.652 230.027 316.468 229.648 316.468 229.216C316.468 228.928 316.548 228.651 316.708 228.384C316.873 228.117 317.108 227.885 317.412 227.688C316.905 227.421 316.534 227.099 316.3 226.72C316.07 226.336 315.956 225.872 315.956 225.328C315.956 224.731 316.105 224.208 316.404 223.76C316.702 223.312 317.116 222.963 317.644 222.712C318.177 222.461 318.79 222.336 319.484 222.336C320.161 222.336 320.726 222.301 321.18 222.232C321.633 222.157 322.028 222.053 322.364 221.92C322.705 221.787 323.044 221.64 323.38 221.48ZM319.5 223.568C318.929 223.568 318.5 223.731 318.212 224.056C317.924 224.376 317.78 224.795 317.78 225.312C317.78 225.845 317.926 226.275 318.22 226.6C318.518 226.92 318.953 227.08 319.524 227.08C320.052 227.08 320.454 226.925 320.732 226.616C321.014 226.307 321.156 225.867 321.156 225.296C321.156 224.72 321.017 224.288 320.74 224C320.462 223.712 320.049 223.568 319.5 223.568ZM327.83 227.352C327.867 227.928 327.99 228.4 328.198 228.768C328.406 229.131 328.678 229.397 329.014 229.568C329.355 229.739 329.728 229.824 330.134 229.824C330.55 229.824 330.934 229.76 331.286 229.632C331.638 229.504 331.992 229.323 332.35 229.088L333.126 230.16C332.731 230.48 332.27 230.736 331.742 230.928C331.214 231.12 330.648 231.216 330.046 231.216C329.171 231.216 328.43 231.029 327.822 230.656C327.219 230.283 326.76 229.763 326.446 229.096C326.131 228.429 325.974 227.659 325.974 226.784C325.974 225.936 326.128 225.179 326.438 224.512C326.747 223.84 327.19 223.309 327.766 222.92C328.342 222.525 329.03 222.328 329.83 222.328C330.582 222.328 331.227 222.499 331.766 222.84C332.31 223.181 332.728 223.667 333.022 224.296C333.32 224.92 333.47 225.672 333.47 226.552C333.47 226.696 333.464 226.84 333.454 226.984C333.448 227.123 333.44 227.245 333.43 227.352H327.83ZM329.846 223.656C329.286 223.656 328.822 223.856 328.454 224.256C328.091 224.656 327.88 225.28 327.822 226.128H331.734C331.718 225.333 331.547 224.723 331.222 224.296C330.902 223.869 330.443 223.656 329.846 223.656ZM338.687 225.4C338.687 226.168 338.749 226.864 338.871 227.488C338.999 228.107 339.197 228.685 339.463 229.224C339.73 229.757 340.069 230.28 340.479 230.792C340.895 231.304 341.389 231.835 341.959 232.384L340.967 233.344C340.109 232.629 339.37 231.888 338.751 231.12C338.138 230.357 337.666 229.512 337.335 228.584C337.005 227.656 336.839 226.595 336.839 225.4C336.839 224.2 337.005 223.136 337.335 222.208C337.666 221.28 338.138 220.435 338.751 219.672C339.37 218.904 340.109 218.165 340.967 217.456L341.959 218.416C341.399 218.955 340.911 219.48 340.495 219.992C340.085 220.499 339.743 221.021 339.471 221.56C339.205 222.099 339.007 222.68 338.879 223.304C338.751 223.928 338.687 224.627 338.687 225.4ZM350.969 225.4C350.969 224.627 350.905 223.928 350.777 223.304C350.649 222.68 350.449 222.099 350.177 221.56C349.91 221.021 349.569 220.499 349.153 219.992C348.742 219.48 348.257 218.955 347.697 218.416L348.689 217.456C349.548 218.165 350.284 218.904 350.897 219.672C351.516 220.435 351.99 221.28 352.321 222.208C352.652 223.136 352.817 224.2 352.817 225.4C352.817 226.595 352.652 227.656 352.321 228.584C351.99 229.512 351.516 230.357 350.897 231.12C350.284 231.888 349.548 232.629 348.689 233.344L347.697 232.384C348.268 231.835 348.758 231.304 349.169 230.792C349.585 230.28 349.926 229.757 350.193 229.224C350.46 228.685 350.654 228.107 350.777 227.488C350.905 226.864 350.969 226.168 350.969 225.4ZM300.4 242.456V252H298.544V242.456H295.232V240.96H303.792L303.6 242.456H300.4ZM307.682 248.352C307.719 248.928 307.842 249.4 308.05 249.768C308.258 250.131 308.53 250.397 308.866 250.568C309.207 250.739 309.581 250.824 309.986 250.824C310.402 250.824 310.786 250.76 311.138 250.632C311.49 250.504 311.845 250.323 312.202 250.088L312.978 251.16C312.583 251.48 312.122 251.736 311.594 251.928C311.066 252.12 310.501 252.216 309.898 252.216C309.023 252.216 308.282 252.029 307.674 251.656C307.071 251.283 306.613 250.763 306.298 250.096C305.983 249.429 305.826 248.659 305.826 247.784C305.826 246.936 305.981 246.179 306.29 245.512C306.599 244.84 307.042 244.309 307.618 243.92C308.194 243.525 308.882 243.328 309.682 243.328C310.434 243.328 311.079 243.499 311.618 243.84C312.162 244.181 312.581 244.667 312.874 245.296C313.173 245.92 313.322 246.672 313.322 247.552C313.322 247.696 313.317 247.84 313.306 247.984C313.301 248.123 313.293 248.245 313.282 248.352H307.682ZM309.698 244.656C309.138 244.656 308.674 244.856 308.306 245.256C307.943 245.656 307.733 246.28 307.674 247.128H311.586C311.57 246.333 311.399 245.723 311.074 245.296C310.754 244.869 310.295 244.656 309.698 244.656ZM317.516 252H315.532L318.564 247.544L315.868 243.552H317.932L319.66 246.528L321.388 243.552H323.356L320.716 247.472L323.756 252H321.652L319.58 248.552L317.516 252ZM333.398 251.552C333.088 251.749 332.718 251.909 332.286 252.032C331.854 252.155 331.403 252.216 330.934 252.216C329.952 252.216 329.206 251.963 328.694 251.456C328.187 250.944 327.934 250.272 327.934 249.44V244.856H326.054V243.552H327.934V241.664L329.726 241.448V243.552H332.574L332.374 244.856H329.726V249.424C329.726 249.877 329.838 250.216 330.062 250.44C330.291 250.659 330.664 250.768 331.182 250.768C331.491 250.768 331.776 250.731 332.038 250.656C332.299 250.581 332.536 250.485 332.75 250.368L333.398 251.552ZM341.879 248.808C341.879 248.312 341.783 247.928 341.591 247.656C341.399 247.384 341.141 247.195 340.815 247.088C340.49 246.976 340.125 246.92 339.719 246.92H338.143V250.56H339.639C339.906 250.56 340.17 250.539 340.431 250.496C340.698 250.448 340.941 250.363 341.159 250.24C341.378 250.112 341.551 249.933 341.679 249.704C341.813 249.475 341.879 249.176 341.879 248.808ZM341.455 243.904C341.455 243.349 341.282 242.952 340.935 242.712C340.589 242.472 340.101 242.352 339.471 242.352H338.143V245.544H339.583C340.202 245.544 340.669 245.416 340.983 245.16C341.298 244.899 341.455 244.48 341.455 243.904ZM343.815 248.816C343.815 249.429 343.695 249.944 343.455 250.36C343.215 250.771 342.89 251.096 342.479 251.336C342.074 251.576 341.615 251.747 341.103 251.848C340.591 251.949 340.063 252 339.519 252H336.287V240.96H339.303C339.821 240.96 340.319 241.005 340.799 241.096C341.279 241.181 341.709 241.331 342.087 241.544C342.471 241.757 342.775 242.045 342.999 242.408C343.223 242.765 343.335 243.213 343.335 243.752C343.335 244.216 343.239 244.611 343.047 244.936C342.855 245.261 342.602 245.525 342.287 245.728C341.978 245.925 341.647 246.067 341.295 246.152C341.695 246.216 342.087 246.341 342.471 246.528C342.861 246.709 343.181 246.984 343.431 247.352C343.687 247.72 343.815 248.208 343.815 248.816ZM349.873 243.328C350.7 243.328 351.396 243.512 351.961 243.88C352.526 244.248 352.953 244.763 353.241 245.424C353.534 246.085 353.681 246.864 353.681 247.76C353.681 248.651 353.532 249.432 353.233 250.104C352.94 250.771 352.508 251.291 351.937 251.664C351.372 252.032 350.681 252.216 349.865 252.216C349.049 252.216 348.356 252.037 347.785 251.68C347.22 251.317 346.788 250.803 346.489 250.136C346.196 249.469 346.049 248.683 346.049 247.776C346.049 246.896 346.196 246.123 346.489 245.456C346.788 244.789 347.222 244.269 347.793 243.896C348.364 243.517 349.057 243.328 349.873 243.328ZM349.873 244.72C349.228 244.72 348.742 244.968 348.417 245.464C348.092 245.955 347.929 246.725 347.929 247.776C347.929 248.821 348.089 249.592 348.409 250.088C348.734 250.584 349.22 250.832 349.865 250.832C350.51 250.832 350.993 250.584 351.313 250.088C351.638 249.592 351.801 248.816 351.801 247.76C351.801 246.72 351.641 245.955 351.321 245.464C351.001 244.968 350.518 244.72 349.873 244.72ZM357.811 252H355.827L358.859 247.544L356.163 243.552H358.227L359.955 246.528L361.683 243.552H363.651L361.011 247.472L364.051 252H361.947L359.875 248.552L357.811 252ZM368.908 246.4C368.908 247.168 368.97 247.864 369.092 248.488C369.22 249.107 369.418 249.685 369.684 250.224C369.951 250.757 370.29 251.28 370.7 251.792C371.116 252.304 371.61 252.835 372.18 253.384L371.188 254.344C370.33 253.629 369.591 252.888 368.972 252.12C368.359 251.357 367.887 250.512 367.556 249.584C367.226 248.656 367.06 247.595 367.06 246.4C367.06 245.2 367.226 244.136 367.556 243.208C367.887 242.28 368.359 241.435 368.972 240.672C369.591 239.904 370.33 239.165 371.188 238.456L372.18 239.416C371.62 239.955 371.132 240.48 370.716 240.992C370.306 241.499 369.964 242.021 369.692 242.56C369.426 243.099 369.228 243.68 369.1 244.304C368.972 244.928 368.908 245.627 368.908 246.4ZM381.19 246.4C381.19 245.627 381.126 244.928 380.998 244.304C380.87 243.68 380.67 243.099 380.398 242.56C380.132 242.021 379.79 241.499 379.374 240.992C378.964 240.48 378.478 239.955 377.918 239.416L378.91 238.456C379.769 239.165 380.505 239.904 381.118 240.672C381.737 241.435 382.212 242.28 382.542 243.208C382.873 244.136 383.038 245.2 383.038 246.4C383.038 247.595 382.873 248.656 382.542 249.584C382.212 250.512 381.737 251.357 381.118 252.12C380.505 252.888 379.769 253.629 378.91 254.344L377.918 253.384C378.489 252.835 378.98 252.304 379.39 251.792C379.806 251.28 380.148 250.757 380.414 250.224C380.681 249.685 380.876 249.107 380.998 248.488C381.126 247.864 381.19 247.168 381.19 246.4Z" fill="#FEF08A"/>
<path d="M238.75 145.84C239.31 145.84 239.755 145.741 240.086 145.544C240.416 145.341 240.582 145.064 240.582 144.712C240.582 144.483 240.534 144.288 240.438 144.128C240.342 143.963 240.15 143.813 239.862 143.68C239.574 143.541 239.136 143.397 238.55 143.248C237.995 143.104 237.507 142.933 237.086 142.736C236.67 142.539 236.347 142.283 236.118 141.968C235.888 141.653 235.774 141.248 235.774 140.752C235.774 140.267 235.91 139.843 236.182 139.48C236.454 139.117 236.843 138.835 237.35 138.632C237.862 138.429 238.462 138.328 239.15 138.328C239.859 138.328 240.478 138.421 241.006 138.608C241.534 138.795 241.984 139.027 242.358 139.304L241.606 140.432C241.275 140.213 240.912 140.035 240.518 139.896C240.128 139.757 239.688 139.688 239.198 139.688C238.627 139.688 238.216 139.773 237.966 139.944C237.72 140.115 237.598 140.341 237.598 140.624C237.598 140.832 237.659 141.008 237.782 141.152C237.91 141.291 238.128 141.421 238.438 141.544C238.747 141.661 239.184 141.8 239.75 141.96C240.299 142.109 240.776 142.285 241.182 142.488C241.592 142.691 241.91 142.96 242.134 143.296C242.363 143.627 242.478 144.059 242.478 144.592C242.478 145.2 242.302 145.699 241.95 146.088C241.603 146.472 241.144 146.757 240.574 146.944C240.008 147.125 239.4 147.216 238.75 147.216C237.966 147.216 237.288 147.104 236.718 146.88C236.147 146.651 235.667 146.365 235.278 146.024L236.23 144.936C236.56 145.203 236.939 145.421 237.366 145.592C237.792 145.757 238.254 145.84 238.75 145.84ZM247.239 143.352C247.277 143.928 247.399 144.4 247.607 144.768C247.815 145.131 248.087 145.397 248.423 145.568C248.765 145.739 249.138 145.824 249.543 145.824C249.959 145.824 250.343 145.76 250.695 145.632C251.047 145.504 251.402 145.323 251.759 145.088L252.535 146.16C252.141 146.48 251.679 146.736 251.151 146.928C250.623 147.12 250.058 147.216 249.455 147.216C248.581 147.216 247.839 147.029 247.231 146.656C246.629 146.283 246.17 145.763 245.855 145.096C245.541 144.429 245.383 143.659 245.383 142.784C245.383 141.936 245.538 141.179 245.847 140.512C246.157 139.84 246.599 139.309 247.175 138.92C247.751 138.525 248.439 138.328 249.239 138.328C249.991 138.328 250.637 138.499 251.175 138.84C251.719 139.181 252.138 139.667 252.431 140.296C252.73 140.92 252.879 141.672 252.879 142.552C252.879 142.696 252.874 142.84 252.863 142.984C252.858 143.123 252.85 143.245 252.839 143.352H247.239ZM249.255 139.656C248.695 139.656 248.231 139.856 247.863 140.256C247.501 140.656 247.29 141.28 247.231 142.128H251.143C251.127 141.333 250.957 140.723 250.631 140.296C250.311 139.869 249.853 139.656 249.255 139.656ZM259.537 135.16V144.696C259.537 145.085 259.655 145.363 259.889 145.528C260.129 145.688 260.439 145.768 260.817 145.768C261.063 145.768 261.295 145.741 261.513 145.688C261.732 145.635 261.945 145.568 262.153 145.488L262.609 146.736C262.359 146.864 262.049 146.976 261.681 147.072C261.319 147.168 260.903 147.216 260.433 147.216C259.585 147.216 258.924 146.979 258.449 146.504C257.98 146.024 257.745 145.368 257.745 144.536V136.48H255.193V135.16H259.537ZM271.035 134.96C271.552 134.96 272.014 135.005 272.419 135.096C272.83 135.181 273.208 135.299 273.555 135.448L273.027 136.688C272.744 136.571 272.448 136.485 272.139 136.432C271.835 136.379 271.526 136.352 271.211 136.352C270.656 136.352 270.246 136.459 269.979 136.672C269.712 136.88 269.579 137.211 269.579 137.664V139.16H272.403L272.211 140.48H269.579V147H267.795V140.48H265.875V139.16H267.795V137.648C267.795 137.115 267.928 136.648 268.195 136.248C268.467 135.843 268.846 135.528 269.331 135.304C269.816 135.075 270.384 134.96 271.035 134.96ZM148.086 187.84C148.646 187.84 149.091 187.741 149.422 187.544C149.753 187.341 149.918 187.064 149.918 186.712C149.918 186.483 149.87 186.288 149.774 186.128C149.678 185.963 149.486 185.813 149.198 185.68C148.91 185.541 148.473 185.397 147.886 185.248C147.331 185.104 146.843 184.933 146.422 184.736C146.006 184.539 145.683 184.283 145.454 183.968C145.225 183.653 145.11 183.248 145.11 182.752C145.11 182.267 145.246 181.843 145.518 181.48C145.79 181.117 146.179 180.835 146.686 180.632C147.198 180.429 147.798 180.328 148.486 180.328C149.195 180.328 149.814 180.421 150.342 180.608C150.87 180.795 151.321 181.027 151.694 181.304L150.942 182.432C150.611 182.213 150.249 182.035 149.854 181.896C149.465 181.757 149.025 181.688 148.534 181.688C147.963 181.688 147.553 181.773 147.302 181.944C147.057 182.115 146.934 182.341 146.934 182.624C146.934 182.832 146.995 183.008 147.118 183.152C147.246 183.291 147.465 183.421 147.774 183.544C148.083 183.661 148.521 183.8 149.086 183.96C149.635 184.109 150.113 184.285 150.518 184.488C150.929 184.691 151.246 184.96 151.47 185.296C151.699 185.627 151.814 186.059 151.814 186.592C151.814 187.2 151.638 187.699 151.286 188.088C150.939 188.472 150.481 188.757 149.91 188.944C149.345 189.125 148.737 189.216 148.086 189.216C147.302 189.216 146.625 189.104 146.054 188.88C145.483 188.651 145.003 188.365 144.614 188.024L145.566 186.936C145.897 187.203 146.275 187.421 146.702 187.592C147.129 187.757 147.59 187.84 148.086 187.84ZM156.576 185.352C156.613 185.928 156.736 186.4 156.944 186.768C157.152 187.131 157.424 187.397 157.76 187.568C158.101 187.739 158.474 187.824 158.88 187.824C159.296 187.824 159.68 187.76 160.032 187.632C160.384 187.504 160.738 187.323 161.096 187.088L161.872 188.16C161.477 188.48 161.016 188.736 160.488 188.928C159.96 189.12 159.394 189.216 158.792 189.216C157.917 189.216 157.176 189.029 156.568 188.656C155.965 188.283 155.506 187.763 155.192 187.096C154.877 186.429 154.72 185.659 154.72 184.784C154.72 183.936 154.874 183.179 155.184 182.512C155.493 181.84 155.936 181.309 156.512 180.92C157.088 180.525 157.776 180.328 158.576 180.328C159.328 180.328 159.973 180.499 160.512 180.84C161.056 181.181 161.474 181.667 161.768 182.296C162.066 182.92 162.216 183.672 162.216 184.552C162.216 184.696 162.21 184.84 162.2 184.984C162.194 185.123 162.186 185.245 162.176 185.352H156.576ZM158.592 181.656C158.032 181.656 157.568 181.856 157.2 182.256C156.837 182.656 156.626 183.28 156.568 184.128H160.48C160.464 183.333 160.293 182.723 159.968 182.296C159.648 181.869 159.189 181.656 158.592 181.656ZM168.874 177.16V186.696C168.874 187.085 168.991 187.363 169.226 187.528C169.466 187.688 169.775 187.768 170.154 187.768C170.399 187.768 170.631 187.741 170.85 187.688C171.068 187.635 171.282 187.568 171.49 187.488L171.946 188.736C171.695 188.864 171.386 188.976 171.018 189.072C170.655 189.168 170.239 189.216 169.77 189.216C168.922 189.216 168.26 188.979 167.786 188.504C167.316 188.024 167.082 187.368 167.082 186.536V178.48H164.53V177.16H168.874ZM180.371 176.96C180.889 176.96 181.35 177.005 181.755 177.096C182.166 177.181 182.545 177.299 182.891 177.448L182.363 178.688C182.081 178.571 181.785 178.485 181.475 178.432C181.171 178.379 180.862 178.352 180.547 178.352C179.993 178.352 179.582 178.459 179.315 178.672C179.049 178.88 178.915 179.211 178.915 179.664V181.16H181.739L181.547 182.48H178.915V189H177.131V182.48H175.211V181.16H177.131V179.648C177.131 179.115 177.265 178.648 177.531 178.248C177.803 177.843 178.182 177.528 178.667 177.304C179.153 177.075 179.721 176.96 180.371 176.96ZM197.175 176.984V181.584C197.516 181.168 197.916 180.856 198.375 180.648C198.833 180.435 199.305 180.328 199.791 180.328C200.585 180.328 201.177 180.549 201.567 180.992C201.956 181.429 202.151 182.045 202.151 182.84V189H200.359V183.12C200.359 182.613 200.263 182.251 200.071 182.032C199.879 181.808 199.569 181.696 199.143 181.696C198.876 181.696 198.62 181.757 198.375 181.88C198.135 181.997 197.911 182.152 197.703 182.344C197.5 182.536 197.324 182.741 197.175 182.96V189H195.383V177.176L197.175 176.984ZM206.945 185.352C206.982 185.928 207.105 186.4 207.313 186.768C207.521 187.131 207.793 187.397 208.129 187.568C208.47 187.739 208.843 187.824 209.249 187.824C209.665 187.824 210.049 187.76 210.401 187.632C210.753 187.504 211.107 187.323 211.465 187.088L212.241 188.16C211.846 188.48 211.385 188.736 210.857 188.928C210.329 189.12 209.763 189.216 209.161 189.216C208.286 189.216 207.545 189.029 206.937 188.656C206.334 188.283 205.875 187.763 205.561 187.096C205.246 186.429 205.089 185.659 205.089 184.784C205.089 183.936 205.243 183.179 205.553 182.512C205.862 181.84 206.305 181.309 206.881 180.92C207.457 180.525 208.145 180.328 208.945 180.328C209.697 180.328 210.342 180.499 210.881 180.84C211.425 181.181 211.843 181.667 212.137 182.296C212.435 182.92 212.585 183.672 212.585 184.552C212.585 184.696 212.579 184.84 212.569 184.984C212.563 185.123 212.555 185.245 212.545 185.352H206.945ZM208.961 181.656C208.401 181.656 207.937 181.856 207.569 182.256C207.206 182.656 206.995 183.28 206.937 184.128H210.849C210.833 183.333 210.662 182.723 210.337 182.296C210.017 181.869 209.558 181.656 208.961 181.656ZM215.61 189V187.72H216.85V181.824H215.61V180.552H218.218L218.546 182.512C218.861 181.803 219.25 181.264 219.714 180.896C220.184 180.523 220.786 180.336 221.522 180.336C221.773 180.336 221.997 180.357 222.194 180.4C222.397 180.437 222.597 180.488 222.794 180.552L222.258 182.088C222.088 182.04 221.928 182.005 221.778 181.984C221.629 181.957 221.464 181.944 221.282 181.944C220.669 181.944 220.138 182.173 219.69 182.632C219.248 183.091 218.898 183.741 218.642 184.584V187.72H220.346V189H215.61ZM221.21 183.664V181.584L221.434 180.552H222.794L222.49 183.664H221.21ZM228.988 180.328C229.815 180.328 230.511 180.512 231.076 180.88C231.641 181.248 232.068 181.763 232.356 182.424C232.649 183.085 232.796 183.864 232.796 184.76C232.796 185.651 232.647 186.432 232.348 187.104C232.055 187.771 231.623 188.291 231.052 188.664C230.487 189.032 229.796 189.216 228.98 189.216C228.164 189.216 227.471 189.037 226.9 188.68C226.335 188.317 225.903 187.803 225.604 187.136C225.311 186.469 225.164 185.683 225.164 184.776C225.164 183.896 225.311 183.123 225.604 182.456C225.903 181.789 226.337 181.269 226.908 180.896C227.479 180.517 228.172 180.328 228.988 180.328ZM228.988 181.72C228.343 181.72 227.857 181.968 227.532 182.464C227.207 182.955 227.044 183.725 227.044 184.776C227.044 185.821 227.204 186.592 227.524 187.088C227.849 187.584 228.335 187.832 228.98 187.832C229.625 187.832 230.108 187.584 230.428 187.088C230.753 186.592 230.916 185.816 230.916 184.76C230.916 183.72 230.756 182.955 230.436 182.464C230.116 181.968 229.633 181.72 228.988 181.72ZM235.054 191.928V190.448H243.054V191.928H235.054ZM248.823 187.84C249.383 187.84 249.829 187.741 250.159 187.544C250.49 187.341 250.655 187.064 250.655 186.712C250.655 186.483 250.607 186.288 250.511 186.128C250.415 185.963 250.223 185.813 249.935 185.68C249.647 185.541 249.21 185.397 248.623 185.248C248.069 185.104 247.581 184.933 247.159 184.736C246.743 184.539 246.421 184.283 246.191 183.968C245.962 183.653 245.847 183.248 245.847 182.752C245.847 182.267 245.983 181.843 246.255 181.48C246.527 181.117 246.917 180.835 247.423 180.632C247.935 180.429 248.535 180.328 249.223 180.328C249.933 180.328 250.551 180.421 251.079 180.608C251.607 180.795 252.058 181.027 252.431 181.304L251.679 182.432C251.349 182.213 250.986 182.035 250.591 181.896C250.202 181.757 249.762 181.688 249.271 181.688C248.701 181.688 248.29 181.773 248.039 181.944C247.794 182.115 247.671 182.341 247.671 182.624C247.671 182.832 247.733 183.008 247.855 183.152C247.983 183.291 248.202 183.421 248.511 183.544C248.821 183.661 249.258 183.8 249.823 183.96C250.373 184.109 250.85 184.285 251.255 184.488C251.666 184.691 251.983 184.96 252.207 185.296C252.437 185.627 252.551 186.059 252.551 186.592C252.551 187.2 252.375 187.699 252.023 188.088C251.677 188.472 251.218 188.757 250.647 188.944C250.082 189.125 249.474 189.216 248.823 189.216C248.039 189.216 247.362 189.104 246.791 188.88C246.221 188.651 245.741 188.365 245.351 188.024L246.303 186.936C246.634 187.203 247.013 187.421 247.439 187.592C247.866 187.757 248.327 187.84 248.823 187.84ZM257.313 185.352C257.351 185.928 257.473 186.4 257.681 186.768C257.889 187.131 258.161 187.397 258.497 187.568C258.839 187.739 259.212 187.824 259.617 187.824C260.033 187.824 260.417 187.76 260.769 187.632C261.121 187.504 261.476 187.323 261.833 187.088L262.609 188.16C262.215 188.48 261.753 188.736 261.225 188.928C260.697 189.12 260.132 189.216 259.529 189.216C258.655 189.216 257.913 189.029 257.305 188.656C256.703 188.283 256.244 187.763 255.929 187.096C255.615 186.429 255.457 185.659 255.457 184.784C255.457 183.936 255.612 183.179 255.921 182.512C256.231 181.84 256.673 181.309 257.249 180.92C257.825 180.525 258.513 180.328 259.313 180.328C260.065 180.328 260.711 180.499 261.249 180.84C261.793 181.181 262.212 181.667 262.505 182.296C262.804 182.92 262.953 183.672 262.953 184.552C262.953 184.696 262.948 184.84 262.937 184.984C262.932 185.123 262.924 185.245 262.913 185.352H257.313ZM259.329 181.656C258.769 181.656 258.305 181.856 257.937 182.256C257.575 182.656 257.364 183.28 257.305 184.128H261.217C261.201 183.333 261.031 182.723 260.705 182.296C260.385 181.869 259.927 181.656 259.329 181.656ZM269.971 187.744C270.366 187.744 270.734 187.677 271.075 187.544C271.416 187.405 271.742 187.227 272.051 187.008L272.883 188.16C272.515 188.475 272.067 188.731 271.539 188.928C271.016 189.12 270.475 189.216 269.915 189.216C269.051 189.216 268.312 189.035 267.699 188.672C267.086 188.304 266.616 187.789 266.291 187.128C265.966 186.467 265.803 185.696 265.803 184.816C265.803 183.957 265.966 183.192 266.291 182.52C266.622 181.843 267.096 181.309 267.715 180.92C268.334 180.525 269.078 180.328 269.947 180.328C270.523 180.328 271.054 180.413 271.539 180.584C272.024 180.755 272.47 181.008 272.875 181.344L272.051 182.472C271.72 182.243 271.382 182.069 271.035 181.952C270.694 181.829 270.342 181.768 269.979 181.768C269.312 181.768 268.766 182.013 268.339 182.504C267.918 182.995 267.707 183.765 267.707 184.816C267.707 185.52 267.803 186.088 267.995 186.52C268.192 186.947 268.462 187.259 268.803 187.456C269.144 187.648 269.534 187.744 269.971 187.744ZM283.029 188.552C282.719 188.749 282.349 188.909 281.917 189.032C281.485 189.155 281.034 189.216 280.565 189.216C279.583 189.216 278.837 188.963 278.325 188.456C277.818 187.944 277.565 187.272 277.565 186.44V181.856H275.685V180.552H277.565V178.664L279.357 178.448V180.552H282.205L282.005 181.856H279.357V186.424C279.357 186.877 279.469 187.216 279.693 187.44C279.922 187.659 280.295 187.768 280.813 187.768C281.122 187.768 281.407 187.731 281.669 187.656C281.93 187.581 282.167 187.485 282.381 187.368L283.029 188.552ZM290.662 180.552V187.688H292.958V189H286.342V187.688H288.87V181.864H286.422V180.552H290.662ZM289.414 176.416C289.766 176.416 290.049 176.523 290.262 176.736C290.481 176.949 290.59 177.216 290.59 177.536C290.59 177.856 290.481 178.125 290.262 178.344C290.049 178.563 289.766 178.672 289.414 178.672C289.073 178.672 288.793 178.563 288.574 178.344C288.356 178.125 288.246 177.856 288.246 177.536C288.246 177.216 288.356 176.949 288.574 176.736C288.793 176.523 289.073 176.416 289.414 176.416ZM299.504 180.328C300.331 180.328 301.027 180.512 301.592 180.88C302.158 181.248 302.584 181.763 302.872 182.424C303.166 183.085 303.312 183.864 303.312 184.76C303.312 185.651 303.163 186.432 302.864 187.104C302.571 187.771 302.139 188.291 301.568 188.664C301.003 189.032 300.312 189.216 299.496 189.216C298.68 189.216 297.987 189.037 297.416 188.68C296.851 188.317 296.419 187.803 296.12 187.136C295.827 186.469 295.68 185.683 295.68 184.776C295.68 183.896 295.827 183.123 296.12 182.456C296.419 181.789 296.854 181.269 297.424 180.896C297.995 180.517 298.688 180.328 299.504 180.328ZM299.504 181.72C298.859 181.72 298.374 181.968 298.048 182.464C297.723 182.955 297.56 183.725 297.56 184.776C297.56 185.821 297.72 186.592 298.04 187.088C298.366 187.584 298.851 187.832 299.496 187.832C300.142 187.832 300.624 187.584 300.944 187.088C301.27 186.592 301.432 185.816 301.432 184.76C301.432 183.72 301.272 182.955 300.952 182.464C300.632 181.968 300.15 181.72 299.504 181.72ZM306.194 189V180.552H307.738L307.874 181.648C308.226 181.216 308.642 180.888 309.122 180.664C309.602 180.44 310.095 180.328 310.602 180.328C311.391 180.328 311.981 180.549 312.37 180.992C312.765 181.429 312.962 182.045 312.962 182.84V189H311.17V183.728C311.17 183.237 311.141 182.843 311.082 182.544C311.023 182.245 310.906 182.029 310.73 181.896C310.559 181.763 310.303 181.696 309.962 181.696C309.69 181.696 309.431 181.755 309.186 181.872C308.941 181.989 308.717 182.144 308.514 182.336C308.311 182.523 308.135 182.723 307.986 182.936V189H306.194ZM148.086 208.84C148.646 208.84 149.091 208.741 149.422 208.544C149.753 208.341 149.918 208.064 149.918 207.712C149.918 207.483 149.87 207.288 149.774 207.128C149.678 206.963 149.486 206.813 149.198 206.68C148.91 206.541 148.473 206.397 147.886 206.248C147.331 206.104 146.843 205.933 146.422 205.736C146.006 205.539 145.683 205.283 145.454 204.968C145.225 204.653 145.11 204.248 145.11 203.752C145.11 203.267 145.246 202.843 145.518 202.48C145.79 202.117 146.179 201.835 146.686 201.632C147.198 201.429 147.798 201.328 148.486 201.328C149.195 201.328 149.814 201.421 150.342 201.608C150.87 201.795 151.321 202.027 151.694 202.304L150.942 203.432C150.611 203.213 150.249 203.035 149.854 202.896C149.465 202.757 149.025 202.688 148.534 202.688C147.963 202.688 147.553 202.773 147.302 202.944C147.057 203.115 146.934 203.341 146.934 203.624C146.934 203.832 146.995 204.008 147.118 204.152C147.246 204.291 147.465 204.421 147.774 204.544C148.083 204.661 148.521 204.8 149.086 204.96C149.635 205.109 150.113 205.285 150.518 205.488C150.929 205.691 151.246 205.96 151.47 206.296C151.699 206.627 151.814 207.059 151.814 207.592C151.814 208.2 151.638 208.699 151.286 209.088C150.939 209.472 150.481 209.757 149.91 209.944C149.345 210.125 148.737 210.216 148.086 210.216C147.302 210.216 146.625 210.104 146.054 209.88C145.483 209.651 145.003 209.365 144.614 209.024L145.566 207.936C145.897 208.203 146.275 208.421 146.702 208.592C147.129 208.757 147.59 208.84 148.086 208.84ZM156.576 206.352C156.613 206.928 156.736 207.4 156.944 207.768C157.152 208.131 157.424 208.397 157.76 208.568C158.101 208.739 158.474 208.824 158.88 208.824C159.296 208.824 159.68 208.76 160.032 208.632C160.384 208.504 160.738 208.323 161.096 208.088L161.872 209.16C161.477 209.48 161.016 209.736 160.488 209.928C159.96 210.12 159.394 210.216 158.792 210.216C157.917 210.216 157.176 210.029 156.568 209.656C155.965 209.283 155.506 208.763 155.192 208.096C154.877 207.429 154.72 206.659 154.72 205.784C154.72 204.936 154.874 204.179 155.184 203.512C155.493 202.84 155.936 202.309 156.512 201.92C157.088 201.525 157.776 201.328 158.576 201.328C159.328 201.328 159.973 201.499 160.512 201.84C161.056 202.181 161.474 202.667 161.768 203.296C162.066 203.92 162.216 204.672 162.216 205.552C162.216 205.696 162.21 205.84 162.2 205.984C162.194 206.123 162.186 206.245 162.176 206.352H156.576ZM158.592 202.656C158.032 202.656 157.568 202.856 157.2 203.256C156.837 203.656 156.626 204.28 156.568 205.128H160.48C160.464 204.333 160.293 203.723 159.968 203.296C159.648 202.869 159.189 202.656 158.592 202.656ZM168.874 198.16V207.696C168.874 208.085 168.991 208.363 169.226 208.528C169.466 208.688 169.775 208.768 170.154 208.768C170.399 208.768 170.631 208.741 170.85 208.688C171.068 208.635 171.282 208.568 171.49 208.488L171.946 209.736C171.695 209.864 171.386 209.976 171.018 210.072C170.655 210.168 170.239 210.216 169.77 210.216C168.922 210.216 168.26 209.979 167.786 209.504C167.316 209.024 167.082 208.368 167.082 207.536V199.48H164.53V198.16H168.874ZM180.371 197.96C180.889 197.96 181.35 198.005 181.755 198.096C182.166 198.181 182.545 198.299 182.891 198.448L182.363 199.688C182.081 199.571 181.785 199.485 181.475 199.432C181.171 199.379 180.862 199.352 180.547 199.352C179.993 199.352 179.582 199.459 179.315 199.672C179.049 199.88 178.915 200.211 178.915 200.664V202.16H181.739L181.547 203.48H178.915V210H177.131V203.48H175.211V202.16H177.131V200.648C177.131 200.115 177.265 199.648 177.531 199.248C177.803 198.843 178.182 198.528 178.667 198.304C179.153 198.075 179.721 197.96 180.371 197.96ZM199.455 208.744C199.849 208.744 200.217 208.677 200.559 208.544C200.9 208.405 201.225 208.227 201.535 208.008L202.367 209.16C201.999 209.475 201.551 209.731 201.023 209.928C200.5 210.12 199.959 210.216 199.399 210.216C198.535 210.216 197.796 210.035 197.183 209.672C196.569 209.304 196.1 208.789 195.775 208.128C195.449 207.467 195.287 206.696 195.287 205.816C195.287 204.957 195.449 204.192 195.775 203.52C196.105 202.843 196.58 202.309 197.199 201.92C197.817 201.525 198.561 201.328 199.431 201.328C200.007 201.328 200.537 201.413 201.023 201.584C201.508 201.755 201.953 202.008 202.359 202.344L201.535 203.472C201.204 203.243 200.865 203.069 200.519 202.952C200.177 202.829 199.825 202.768 199.463 202.768C198.796 202.768 198.249 203.013 197.823 203.504C197.401 203.995 197.191 204.765 197.191 205.816C197.191 206.52 197.287 207.088 197.479 207.52C197.676 207.947 197.945 208.259 198.287 208.456C198.628 208.648 199.017 208.744 199.455 208.744ZM212.513 209.552C212.203 209.749 211.833 209.909 211.401 210.032C210.969 210.155 210.518 210.216 210.049 210.216C209.067 210.216 208.321 209.963 207.809 209.456C207.302 208.944 207.049 208.272 207.049 207.44V202.856H205.169V201.552H207.049V199.664L208.841 199.448V201.552H211.689L211.489 202.856H208.841V207.424C208.841 207.877 208.953 208.216 209.177 208.44C209.406 208.659 209.779 208.768 210.297 208.768C210.606 208.768 210.891 208.731 211.153 208.656C211.414 208.581 211.651 208.485 211.865 208.368L212.513 209.552ZM221.986 207.928C221.986 208.259 222.037 208.501 222.138 208.656C222.24 208.805 222.402 208.917 222.626 208.992L222.226 210.208C221.81 210.16 221.453 210.045 221.154 209.864C220.856 209.683 220.629 209.408 220.474 209.04C220.165 209.429 219.773 209.723 219.298 209.92C218.824 210.117 218.317 210.216 217.778 210.216C216.925 210.216 216.248 209.976 215.746 209.496C215.25 209.011 215.002 208.376 215.002 207.592C215.002 206.701 215.349 206.016 216.042 205.536C216.736 205.056 217.728 204.816 219.018 204.816H220.226V204.264C220.226 203.72 220.061 203.328 219.73 203.088C219.405 202.848 218.944 202.728 218.346 202.728C218.069 202.728 217.733 202.765 217.338 202.84C216.944 202.909 216.53 203.019 216.098 203.168L215.658 201.904C216.186 201.707 216.704 201.563 217.21 201.472C217.717 201.376 218.186 201.328 218.618 201.328C219.749 201.328 220.592 201.579 221.146 202.08C221.706 202.581 221.986 203.275 221.986 204.16V207.928ZM218.322 208.896C218.685 208.896 219.04 208.8 219.386 208.608C219.733 208.416 220.013 208.147 220.226 207.8V205.936H219.234C218.392 205.936 217.789 206.077 217.426 206.36C217.064 206.637 216.882 207.021 216.882 207.512C216.882 207.96 217.002 208.304 217.242 208.544C217.488 208.779 217.848 208.896 218.322 208.896ZM224.98 212.928V211.448H232.98V212.928H224.98ZM237.47 202.56C237.763 202.176 238.104 201.875 238.494 201.656C238.888 201.437 239.32 201.328 239.79 201.328C240.531 201.328 241.131 201.512 241.59 201.88C242.054 202.243 242.392 202.757 242.606 203.424C242.824 204.085 242.934 204.864 242.934 205.76C242.934 206.619 242.806 207.384 242.55 208.056C242.294 208.728 241.915 209.256 241.414 209.64C240.918 210.024 240.304 210.216 239.574 210.216C238.63 210.216 237.888 209.867 237.35 209.168L237.254 210H235.678V198.16L237.47 197.96V202.56ZM239.126 208.848C239.734 208.848 240.203 208.6 240.534 208.104C240.87 207.608 241.038 206.829 241.038 205.768C241.038 205.048 240.971 204.464 240.838 204.016C240.704 203.563 240.507 203.232 240.246 203.024C239.99 202.816 239.675 202.712 239.302 202.712C238.902 202.712 238.55 202.832 238.246 203.072C237.942 203.312 237.683 203.595 237.47 203.92V207.872C237.667 208.176 237.904 208.416 238.182 208.592C238.464 208.763 238.779 208.848 239.126 208.848ZM247.543 201.552V207.456C247.543 207.957 247.642 208.315 247.839 208.528C248.042 208.741 248.346 208.848 248.751 208.848C249.135 208.848 249.506 208.733 249.863 208.504C250.221 208.275 250.503 207.995 250.711 207.664V201.552H252.503V210H250.959L250.847 208.92C250.533 209.341 250.135 209.664 249.655 209.888C249.175 210.107 248.685 210.216 248.183 210.216C247.367 210.216 246.757 209.992 246.351 209.544C245.951 209.091 245.751 208.469 245.751 207.68V201.552H247.543ZM262.881 209.552C262.572 209.749 262.201 209.909 261.769 210.032C261.337 210.155 260.887 210.216 260.417 210.216C259.436 210.216 258.689 209.963 258.177 209.456C257.671 208.944 257.417 208.272 257.417 207.44V202.856H255.537V201.552H257.417V199.664L259.209 199.448V201.552H262.057L261.857 202.856H259.209V207.424C259.209 207.877 259.321 208.216 259.545 208.44C259.775 208.659 260.148 208.768 260.665 208.768C260.975 208.768 261.26 208.731 261.521 208.656C261.783 208.581 262.02 208.485 262.233 208.368L262.881 209.552ZM272.955 209.552C272.646 209.749 272.275 209.909 271.843 210.032C271.411 210.155 270.96 210.216 270.491 210.216C269.51 210.216 268.763 209.963 268.251 209.456C267.744 208.944 267.491 208.272 267.491 207.44V202.856H265.611V201.552H267.491V199.664L269.283 199.448V201.552H272.131L271.931 202.856H269.283V207.424C269.283 207.877 269.395 208.216 269.619 208.44C269.848 208.659 270.222 208.768 270.739 208.768C271.048 208.768 271.334 208.731 271.595 208.656C271.856 208.581 272.094 208.485 272.307 208.368L272.955 209.552ZM279.357 201.328C280.183 201.328 280.879 201.512 281.445 201.88C282.01 202.248 282.437 202.763 282.725 203.424C283.018 204.085 283.165 204.864 283.165 205.76C283.165 206.651 283.015 207.432 282.717 208.104C282.423 208.771 281.991 209.291 281.421 209.664C280.855 210.032 280.165 210.216 279.349 210.216C278.533 210.216 277.839 210.037 277.269 209.68C276.703 209.317 276.271 208.803 275.973 208.136C275.679 207.469 275.533 206.683 275.533 205.776C275.533 204.896 275.679 204.123 275.973 203.456C276.271 202.789 276.706 202.269 277.277 201.896C277.847 201.517 278.541 201.328 279.357 201.328ZM279.357 202.72C278.711 202.72 278.226 202.968 277.901 203.464C277.575 203.955 277.413 204.725 277.413 205.776C277.413 206.821 277.573 207.592 277.893 208.088C278.218 208.584 278.703 208.832 279.349 208.832C279.994 208.832 280.477 208.584 280.797 208.088C281.122 207.592 281.285 206.816 281.285 205.76C281.285 204.72 281.125 203.955 280.805 203.464C280.485 202.968 280.002 202.72 279.357 202.72ZM286.046 210V201.552H287.59L287.726 202.648C288.078 202.216 288.494 201.888 288.974 201.664C289.454 201.44 289.948 201.328 290.454 201.328C291.244 201.328 291.833 201.549 292.222 201.992C292.617 202.429 292.814 203.045 292.814 203.84V210H291.022V204.728C291.022 204.237 290.993 203.843 290.934 203.544C290.876 203.245 290.758 203.029 290.582 202.896C290.412 202.763 290.156 202.696 289.814 202.696C289.542 202.696 289.284 202.755 289.038 202.872C288.793 202.989 288.569 203.144 288.366 203.336C288.164 203.523 287.988 203.723 287.838 203.936V210H286.046ZM148.086 229.84C148.646 229.84 149.091 229.741 149.422 229.544C149.753 229.341 149.918 229.064 149.918 228.712C149.918 228.483 149.87 228.288 149.774 228.128C149.678 227.963 149.486 227.813 149.198 227.68C148.91 227.541 148.473 227.397 147.886 227.248C147.331 227.104 146.843 226.933 146.422 226.736C146.006 226.539 145.683 226.283 145.454 225.968C145.225 225.653 145.11 225.248 145.11 224.752C145.11 224.267 145.246 223.843 145.518 223.48C145.79 223.117 146.179 222.835 146.686 222.632C147.198 222.429 147.798 222.328 148.486 222.328C149.195 222.328 149.814 222.421 150.342 222.608C150.87 222.795 151.321 223.027 151.694 223.304L150.942 224.432C150.611 224.213 150.249 224.035 149.854 223.896C149.465 223.757 149.025 223.688 148.534 223.688C147.963 223.688 147.553 223.773 147.302 223.944C147.057 224.115 146.934 224.341 146.934 224.624C146.934 224.832 146.995 225.008 147.118 225.152C147.246 225.291 147.465 225.421 147.774 225.544C148.083 225.661 148.521 225.8 149.086 225.96C149.635 226.109 150.113 226.285 150.518 226.488C150.929 226.691 151.246 226.96 151.47 227.296C151.699 227.627 151.814 228.059 151.814 228.592C151.814 229.2 151.638 229.699 151.286 230.088C150.939 230.472 150.481 230.757 149.91 230.944C149.345 231.125 148.737 231.216 148.086 231.216C147.302 231.216 146.625 231.104 146.054 230.88C145.483 230.651 145.003 230.365 144.614 230.024L145.566 228.936C145.897 229.203 146.275 229.421 146.702 229.592C147.129 229.757 147.59 229.84 148.086 229.84ZM156.576 227.352C156.613 227.928 156.736 228.4 156.944 228.768C157.152 229.131 157.424 229.397 157.76 229.568C158.101 229.739 158.474 229.824 158.88 229.824C159.296 229.824 159.68 229.76 160.032 229.632C160.384 229.504 160.738 229.323 161.096 229.088L161.872 230.16C161.477 230.48 161.016 230.736 160.488 230.928C159.96 231.12 159.394 231.216 158.792 231.216C157.917 231.216 157.176 231.029 156.568 230.656C155.965 230.283 155.506 229.763 155.192 229.096C154.877 228.429 154.72 227.659 154.72 226.784C154.72 225.936 154.874 225.179 155.184 224.512C155.493 223.84 155.936 223.309 156.512 222.92C157.088 222.525 157.776 222.328 158.576 222.328C159.328 222.328 159.973 222.499 160.512 222.84C161.056 223.181 161.474 223.667 161.768 224.296C162.066 224.92 162.216 225.672 162.216 226.552C162.216 226.696 162.21 226.84 162.2 226.984C162.194 227.123 162.186 227.245 162.176 227.352H156.576ZM158.592 223.656C158.032 223.656 157.568 223.856 157.2 224.256C156.837 224.656 156.626 225.28 156.568 226.128H160.48C160.464 225.333 160.293 224.723 159.968 224.296C159.648 223.869 159.189 223.656 158.592 223.656ZM168.874 219.16V228.696C168.874 229.085 168.991 229.363 169.226 229.528C169.466 229.688 169.775 229.768 170.154 229.768C170.399 229.768 170.631 229.741 170.85 229.688C171.068 229.635 171.282 229.568 171.49 229.488L171.946 230.736C171.695 230.864 171.386 230.976 171.018 231.072C170.655 231.168 170.239 231.216 169.77 231.216C168.922 231.216 168.26 230.979 167.786 230.504C167.316 230.024 167.082 229.368 167.082 228.536V220.48H164.53V219.16H168.874ZM180.371 218.96C180.889 218.96 181.35 219.005 181.755 219.096C182.166 219.181 182.545 219.299 182.891 219.448L182.363 220.688C182.081 220.571 181.785 220.485 181.475 220.432C181.171 220.379 180.862 220.352 180.547 220.352C179.993 220.352 179.582 220.459 179.315 220.672C179.049 220.88 178.915 221.211 178.915 221.664V223.16H181.739L181.547 224.48H178.915V231H177.131V224.48H175.211V223.16H177.131V221.648C177.131 221.115 177.265 220.648 177.531 220.248C177.803 219.843 178.182 219.528 178.667 219.304C179.153 219.075 179.721 218.96 180.371 218.96ZM202.439 230.552C202.129 230.749 201.759 230.909 201.327 231.032C200.895 231.155 200.444 231.216 199.975 231.216C198.993 231.216 198.247 230.963 197.735 230.456C197.228 229.944 196.975 229.272 196.975 228.44V223.856H195.095V222.552H196.975V220.664L198.767 220.448V222.552H201.615L201.415 223.856H198.767V228.424C198.767 228.877 198.879 229.216 199.103 229.44C199.332 229.659 199.705 229.768 200.223 229.768C200.532 229.768 200.817 229.731 201.079 229.656C201.34 229.581 201.577 229.485 201.791 229.368L202.439 230.552ZM206.945 227.352C206.982 227.928 207.105 228.4 207.313 228.768C207.521 229.131 207.793 229.397 208.129 229.568C208.47 229.739 208.843 229.824 209.249 229.824C209.665 229.824 210.049 229.76 210.401 229.632C210.753 229.504 211.107 229.323 211.465 229.088L212.241 230.16C211.846 230.48 211.385 230.736 210.857 230.928C210.329 231.12 209.763 231.216 209.161 231.216C208.286 231.216 207.545 231.029 206.937 230.656C206.334 230.283 205.875 229.763 205.561 229.096C205.246 228.429 205.089 227.659 205.089 226.784C205.089 225.936 205.243 225.179 205.553 224.512C205.862 223.84 206.305 223.309 206.881 222.92C207.457 222.525 208.145 222.328 208.945 222.328C209.697 222.328 210.342 222.499 210.881 222.84C211.425 223.181 211.843 223.667 212.137 224.296C212.435 224.92 212.585 225.672 212.585 226.552C212.585 226.696 212.579 226.84 212.569 226.984C212.563 227.123 212.555 227.245 212.545 227.352H206.945ZM208.961 223.656C208.401 223.656 207.937 223.856 207.569 224.256C207.206 224.656 206.995 225.28 206.937 226.128H210.849C210.833 225.333 210.662 224.723 210.337 224.296C210.017 223.869 209.558 223.656 208.961 223.656ZM221.986 228.928C221.986 229.259 222.037 229.501 222.138 229.656C222.24 229.805 222.402 229.917 222.626 229.992L222.226 231.208C221.81 231.16 221.453 231.045 221.154 230.864C220.856 230.683 220.629 230.408 220.474 230.04C220.165 230.429 219.773 230.723 219.298 230.92C218.824 231.117 218.317 231.216 217.778 231.216C216.925 231.216 216.248 230.976 215.746 230.496C215.25 230.011 215.002 229.376 215.002 228.592C215.002 227.701 215.349 227.016 216.042 226.536C216.736 226.056 217.728 225.816 219.018 225.816H220.226V225.264C220.226 224.72 220.061 224.328 219.73 224.088C219.405 223.848 218.944 223.728 218.346 223.728C218.069 223.728 217.733 223.765 217.338 223.84C216.944 223.909 216.53 224.019 216.098 224.168L215.658 222.904C216.186 222.707 216.704 222.563 217.21 222.472C217.717 222.376 218.186 222.328 218.618 222.328C219.749 222.328 220.592 222.579 221.146 223.08C221.706 223.581 221.986 224.275 221.986 225.16V228.928ZM218.322 229.896C218.685 229.896 219.04 229.8 219.386 229.608C219.733 229.416 220.013 229.147 220.226 228.8V226.936H219.234C218.392 226.936 217.789 227.077 217.426 227.36C217.064 227.637 216.882 228.021 216.882 228.512C216.882 228.96 217.002 229.304 217.242 229.544C217.488 229.779 217.848 229.896 218.322 229.896ZM228.676 229.84C229.236 229.84 229.681 229.741 230.012 229.544C230.343 229.341 230.508 229.064 230.508 228.712C230.508 228.483 230.46 228.288 230.364 228.128C230.268 227.963 230.076 227.813 229.788 227.68C229.5 227.541 229.063 227.397 228.476 227.248C227.921 227.104 227.433 226.933 227.012 226.736C226.596 226.539 226.273 226.283 226.044 225.968C225.815 225.653 225.7 225.248 225.7 224.752C225.7 224.267 225.836 223.843 226.108 223.48C226.38 223.117 226.769 222.835 227.276 222.632C227.788 222.429 228.388 222.328 229.076 222.328C229.785 222.328 230.404 222.421 230.932 222.608C231.46 222.795 231.911 223.027 232.284 223.304L231.532 224.432C231.201 224.213 230.839 224.035 230.444 223.896C230.055 223.757 229.615 223.688 229.124 223.688C228.553 223.688 228.143 223.773 227.892 223.944C227.647 224.115 227.524 224.341 227.524 224.624C227.524 224.832 227.585 225.008 227.708 225.152C227.836 225.291 228.055 225.421 228.364 225.544C228.673 225.661 229.111 225.8 229.676 225.96C230.225 226.109 230.703 226.285 231.108 226.488C231.519 226.691 231.836 226.96 232.06 227.296C232.289 227.627 232.404 228.059 232.404 228.592C232.404 229.2 232.228 229.699 231.876 230.088C231.529 230.472 231.071 230.757 230.5 230.944C229.935 231.125 229.327 231.216 228.676 231.216C227.892 231.216 227.215 231.104 226.644 230.88C226.073 230.651 225.593 230.365 225.204 230.024L226.156 228.936C226.487 229.203 226.865 229.421 227.292 229.592C227.719 229.757 228.18 229.84 228.676 229.84ZM237.166 227.352C237.203 227.928 237.326 228.4 237.534 228.768C237.742 229.131 238.014 229.397 238.35 229.568C238.691 229.739 239.064 229.824 239.47 229.824C239.886 229.824 240.27 229.76 240.622 229.632C240.974 229.504 241.328 229.323 241.686 229.088L242.462 230.16C242.067 230.48 241.606 230.736 241.078 230.928C240.55 231.12 239.984 231.216 239.382 231.216C238.507 231.216 237.766 231.029 237.158 230.656C236.555 230.283 236.096 229.763 235.782 229.096C235.467 228.429 235.31 227.659 235.31 226.784C235.31 225.936 235.464 225.179 235.774 224.512C236.083 223.84 236.526 223.309 237.102 222.92C237.678 222.525 238.366 222.328 239.166 222.328C239.918 222.328 240.563 222.499 241.102 222.84C241.646 223.181 242.064 223.667 242.358 224.296C242.656 224.92 242.806 225.672 242.806 226.552C242.806 226.696 242.8 226.84 242.79 226.984C242.784 227.123 242.776 227.245 242.766 227.352H237.166ZM239.182 223.656C238.622 223.656 238.158 223.856 237.79 224.256C237.427 224.656 237.216 225.28 237.158 226.128H241.07C241.054 225.333 240.883 224.723 240.558 224.296C240.238 223.869 239.779 223.656 239.182 223.656ZM245.831 231V229.72H247.071V223.824H245.831V222.552H248.439L248.767 224.512C249.082 223.803 249.471 223.264 249.935 222.896C250.405 222.523 251.007 222.336 251.743 222.336C251.994 222.336 252.218 222.357 252.415 222.4C252.618 222.437 252.818 222.488 253.016 222.552L252.479 224.088C252.309 224.04 252.149 224.005 251.999 223.984C251.85 223.957 251.685 223.944 251.503 223.944C250.89 223.944 250.359 224.173 249.911 224.632C249.469 225.091 249.119 225.741 248.863 226.584V229.72H250.567V231H245.831ZM251.431 225.664V223.584L251.655 222.552H253.016L252.712 225.664H251.431ZM148.086 250.84C148.646 250.84 149.091 250.741 149.422 250.544C149.753 250.341 149.918 250.064 149.918 249.712C149.918 249.483 149.87 249.288 149.774 249.128C149.678 248.963 149.486 248.813 149.198 248.68C148.91 248.541 148.473 248.397 147.886 248.248C147.331 248.104 146.843 247.933 146.422 247.736C146.006 247.539 145.683 247.283 145.454 246.968C145.225 246.653 145.11 246.248 145.11 245.752C145.11 245.267 145.246 244.843 145.518 244.48C145.79 244.117 146.179 243.835 146.686 243.632C147.198 243.429 147.798 243.328 148.486 243.328C149.195 243.328 149.814 243.421 150.342 243.608C150.87 243.795 151.321 244.027 151.694 244.304L150.942 245.432C150.611 245.213 150.249 245.035 149.854 244.896C149.465 244.757 149.025 244.688 148.534 244.688C147.963 244.688 147.553 244.773 147.302 244.944C147.057 245.115 146.934 245.341 146.934 245.624C146.934 245.832 146.995 246.008 147.118 246.152C147.246 246.291 147.465 246.421 147.774 246.544C148.083 246.661 148.521 246.8 149.086 246.96C149.635 247.109 150.113 247.285 150.518 247.488C150.929 247.691 151.246 247.96 151.47 248.296C151.699 248.627 151.814 249.059 151.814 249.592C151.814 250.2 151.638 250.699 151.286 251.088C150.939 251.472 150.481 251.757 149.91 251.944C149.345 252.125 148.737 252.216 148.086 252.216C147.302 252.216 146.625 252.104 146.054 251.88C145.483 251.651 145.003 251.365 144.614 251.024L145.566 249.936C145.897 250.203 146.275 250.421 146.702 250.592C147.129 250.757 147.59 250.84 148.086 250.84ZM156.576 248.352C156.613 248.928 156.736 249.4 156.944 249.768C157.152 250.131 157.424 250.397 157.76 250.568C158.101 250.739 158.474 250.824 158.88 250.824C159.296 250.824 159.68 250.76 160.032 250.632C160.384 250.504 160.738 250.323 161.096 250.088L161.872 251.16C161.477 251.48 161.016 251.736 160.488 251.928C159.96 252.12 159.394 252.216 158.792 252.216C157.917 252.216 157.176 252.029 156.568 251.656C155.965 251.283 155.506 250.763 155.192 250.096C154.877 249.429 154.72 248.659 154.72 247.784C154.72 246.936 154.874 246.179 155.184 245.512C155.493 244.84 155.936 244.309 156.512 243.92C157.088 243.525 157.776 243.328 158.576 243.328C159.328 243.328 159.973 243.499 160.512 243.84C161.056 244.181 161.474 244.667 161.768 245.296C162.066 245.92 162.216 246.672 162.216 247.552C162.216 247.696 162.21 247.84 162.2 247.984C162.194 248.123 162.186 248.245 162.176 248.352H156.576ZM158.592 244.656C158.032 244.656 157.568 244.856 157.2 245.256C156.837 245.656 156.626 246.28 156.568 247.128H160.48C160.464 246.333 160.293 245.723 159.968 245.296C159.648 244.869 159.189 244.656 158.592 244.656ZM168.874 240.16V249.696C168.874 250.085 168.991 250.363 169.226 250.528C169.466 250.688 169.775 250.768 170.154 250.768C170.399 250.768 170.631 250.741 170.85 250.688C171.068 250.635 171.282 250.568 171.49 250.488L171.946 251.736C171.695 251.864 171.386 251.976 171.018 252.072C170.655 252.168 170.239 252.216 169.77 252.216C168.922 252.216 168.26 251.979 167.786 251.504C167.316 251.024 167.082 250.368 167.082 249.536V241.48H164.53V240.16H168.874ZM180.371 239.96C180.889 239.96 181.35 240.005 181.755 240.096C182.166 240.181 182.545 240.299 182.891 240.448L182.363 241.688C182.081 241.571 181.785 241.485 181.475 241.432C181.171 241.379 180.862 241.352 180.547 241.352C179.993 241.352 179.582 241.459 179.315 241.672C179.049 241.88 178.915 242.211 178.915 242.664V244.16H181.739L181.547 245.48H178.915V252H177.131V245.48H175.211V244.16H177.131V242.648C177.131 242.115 177.265 241.648 177.531 241.248C177.803 240.843 178.182 240.528 178.667 240.304C179.153 240.075 179.721 239.96 180.371 239.96ZM202.439 251.552C202.129 251.749 201.759 251.909 201.327 252.032C200.895 252.155 200.444 252.216 199.975 252.216C198.993 252.216 198.247 251.963 197.735 251.456C197.228 250.944 196.975 250.272 196.975 249.44V244.856H195.095V243.552H196.975V241.664L198.767 241.448V243.552H201.615L201.415 244.856H198.767V249.424C198.767 249.877 198.879 250.216 199.103 250.44C199.332 250.659 199.705 250.768 200.223 250.768C200.532 250.768 200.817 250.731 201.079 250.656C201.34 250.581 201.577 250.485 201.791 250.368L202.439 251.552ZM211.913 249.928C211.913 250.259 211.963 250.501 212.065 250.656C212.166 250.805 212.329 250.917 212.553 250.992L212.153 252.208C211.737 252.16 211.379 252.045 211.081 251.864C210.782 251.683 210.555 251.408 210.401 251.04C210.091 251.429 209.699 251.723 209.225 251.92C208.75 252.117 208.243 252.216 207.705 252.216C206.851 252.216 206.174 251.976 205.673 251.496C205.177 251.011 204.929 250.376 204.929 249.592C204.929 248.701 205.275 248.016 205.969 247.536C206.662 247.056 207.654 246.816 208.945 246.816H210.153V246.264C210.153 245.72 209.987 245.328 209.657 245.088C209.331 244.848 208.87 244.728 208.273 244.728C207.995 244.728 207.659 244.765 207.265 244.84C206.87 244.909 206.457 245.019 206.025 245.168L205.585 243.904C206.113 243.707 206.63 243.563 207.137 243.472C207.643 243.376 208.113 243.328 208.545 243.328C209.675 243.328 210.518 243.579 211.073 244.08C211.633 244.581 211.913 245.275 211.913 246.16V249.928ZM208.249 250.896C208.611 250.896 208.966 250.8 209.313 250.608C209.659 250.416 209.939 250.147 210.153 249.8V247.936H209.161C208.318 247.936 207.715 248.077 207.353 248.36C206.99 248.637 206.809 249.021 206.809 249.512C206.809 249.96 206.929 250.304 207.169 250.544C207.414 250.779 207.774 250.896 208.249 250.896ZM222.642 242.48L223.122 243.968C222.786 244.08 222.416 244.155 222.01 244.192C221.61 244.229 221.162 244.248 220.666 244.248C221.173 244.472 221.554 244.76 221.81 245.112C222.066 245.459 222.194 245.885 222.194 246.392C222.194 246.941 222.061 247.432 221.794 247.864C221.528 248.296 221.146 248.635 220.65 248.88C220.154 249.125 219.56 249.248 218.866 249.248C218.621 249.248 218.408 249.237 218.226 249.216C218.05 249.195 217.877 249.16 217.706 249.112C217.6 249.187 217.509 249.288 217.434 249.416C217.365 249.539 217.33 249.669 217.33 249.808C217.33 249.979 217.4 250.128 217.538 250.256C217.682 250.379 217.965 250.44 218.386 250.44H219.858C220.461 250.44 220.992 250.544 221.45 250.752C221.914 250.955 222.277 251.235 222.538 251.592C222.805 251.944 222.938 252.344 222.938 252.792C222.938 253.635 222.576 254.288 221.85 254.752C221.125 255.216 220.08 255.448 218.714 255.448C217.749 255.448 216.992 255.349 216.442 255.152C215.893 254.955 215.506 254.661 215.282 254.272C215.058 253.883 214.946 253.405 214.946 252.84H216.554C216.554 253.133 216.61 253.376 216.722 253.568C216.84 253.76 217.056 253.904 217.37 254C217.685 254.096 218.138 254.144 218.73 254.144C219.322 254.144 219.792 254.093 220.138 253.992C220.49 253.896 220.744 253.755 220.898 253.568C221.058 253.387 221.138 253.168 221.138 252.912C221.138 252.571 220.989 252.307 220.69 252.12C220.392 251.933 219.992 251.84 219.49 251.84H218.042C217.242 251.84 216.656 251.677 216.282 251.352C215.914 251.027 215.73 250.648 215.73 250.216C215.73 249.928 215.81 249.651 215.97 249.384C216.136 249.117 216.37 248.885 216.674 248.688C216.168 248.421 215.797 248.099 215.562 247.72C215.333 247.336 215.218 246.872 215.218 246.328C215.218 245.731 215.368 245.208 215.666 244.76C215.965 244.312 216.378 243.963 216.906 243.712C217.44 243.461 218.053 243.336 218.746 243.336C219.424 243.336 219.989 243.301 220.442 243.232C220.896 243.157 221.29 243.053 221.626 242.92C221.968 242.787 222.306 242.64 222.642 242.48ZM218.762 244.568C218.192 244.568 217.762 244.731 217.474 245.056C217.186 245.376 217.042 245.795 217.042 246.312C217.042 246.845 217.189 247.275 217.482 247.6C217.781 247.92 218.216 248.08 218.786 248.08C219.314 248.08 219.717 247.925 219.994 247.616C220.277 247.307 220.418 246.867 220.418 246.296C220.418 245.72 220.28 245.288 220.002 245C219.725 244.712 219.312 244.568 218.762 244.568ZM229.316 240.16V249.696C229.316 250.085 229.433 250.363 229.668 250.528C229.908 250.688 230.217 250.768 230.596 250.768C230.841 250.768 231.073 250.741 231.292 250.688C231.511 250.635 231.724 250.568 231.932 250.488L232.388 251.736C232.137 251.864 231.828 251.976 231.46 252.072C231.097 252.168 230.681 252.216 230.212 252.216C229.364 252.216 228.703 251.979 228.228 251.504C227.759 251.024 227.524 250.368 227.524 249.536V241.48H224.972V240.16H229.316ZM240.294 243.552V250.688H242.59V252H235.974V250.688H238.502V244.864H236.054V243.552H240.294ZM239.046 239.416C239.398 239.416 239.68 239.523 239.894 239.736C240.112 239.949 240.222 240.216 240.222 240.536C240.222 240.856 240.112 241.125 239.894 241.344C239.68 241.563 239.398 241.672 239.046 241.672C238.704 241.672 238.424 241.563 238.206 241.344C237.987 241.125 237.878 240.856 237.878 240.536C237.878 240.216 237.987 239.949 238.206 239.736C238.424 239.523 238.704 239.416 239.046 239.416ZM245.751 252V243.552H247.295L247.431 244.648C247.783 244.216 248.199 243.888 248.679 243.664C249.159 243.44 249.653 243.328 250.159 243.328C250.949 243.328 251.538 243.549 251.927 243.992C252.322 244.429 252.519 245.045 252.519 245.84V252H250.727V246.728C250.727 246.237 250.698 245.843 250.639 245.544C250.581 245.245 250.463 245.029 250.287 244.896C250.117 244.763 249.861 244.696 249.519 244.696C249.247 244.696 248.989 244.755 248.743 244.872C248.498 244.989 248.274 245.144 248.071 245.336C247.869 245.523 247.693 245.723 247.543 245.936V252H245.751ZM257.313 248.352C257.351 248.928 257.473 249.4 257.681 249.768C257.889 250.131 258.161 250.397 258.497 250.568C258.839 250.739 259.212 250.824 259.617 250.824C260.033 250.824 260.417 250.76 260.769 250.632C261.121 250.504 261.476 250.323 261.833 250.088L262.609 251.16C262.215 251.48 261.753 251.736 261.225 251.928C260.697 252.12 260.132 252.216 259.529 252.216C258.655 252.216 257.913 252.029 257.305 251.656C256.703 251.283 256.244 250.763 255.929 250.096C255.615 249.429 255.457 248.659 255.457 247.784C255.457 246.936 255.612 246.179 255.921 245.512C256.231 244.84 256.673 244.309 257.249 243.92C257.825 243.525 258.513 243.328 259.313 243.328C260.065 243.328 260.711 243.499 261.249 243.84C261.793 244.181 262.212 244.667 262.505 245.296C262.804 245.92 262.953 246.672 262.953 247.552C262.953 247.696 262.948 247.84 262.937 247.984C262.932 248.123 262.924 248.245 262.913 248.352H257.313ZM259.329 244.656C258.769 244.656 258.305 244.856 257.937 245.256C257.575 245.656 257.364 246.28 257.305 247.128H261.217C261.201 246.333 261.031 245.723 260.705 245.296C260.385 244.869 259.927 244.656 259.329 244.656Z" fill="#7DD3FC"/>
<path d="M299.192 145.84C299.752 145.84 300.198 145.741 300.528 145.544C300.859 145.341 301.024 145.064 301.024 144.712C301.024 144.483 300.976 144.288 300.88 144.128C300.784 143.963 300.592 143.813 300.304 143.68C300.016 143.541 299.579 143.397 298.992 143.248C298.438 143.104 297.95 142.933 297.528 142.736C297.112 142.539 296.79 142.283 296.56 141.968C296.331 141.653 296.216 141.248 296.216 140.752C296.216 140.267 296.352 139.843 296.624 139.48C296.896 139.117 297.286 138.835 297.792 138.632C298.304 138.429 298.904 138.328 299.592 138.328C300.302 138.328 300.92 138.421 301.448 138.608C301.976 138.795 302.427 139.027 302.8 139.304L302.048 140.432C301.718 140.213 301.355 140.035 300.96 139.896C300.571 139.757 300.131 139.688 299.64 139.688C299.07 139.688 298.659 139.773 298.408 139.944C298.163 140.115 298.04 140.341 298.04 140.624C298.04 140.832 298.102 141.008 298.224 141.152C298.352 141.291 298.571 141.421 298.88 141.544C299.19 141.661 299.627 141.8 300.192 141.96C300.742 142.109 301.219 142.285 301.624 142.488C302.035 142.691 302.352 142.96 302.576 143.296C302.806 143.627 302.92 144.059 302.92 144.592C302.92 145.2 302.744 145.699 302.392 146.088C302.046 146.472 301.587 146.757 301.016 146.944C300.451 147.125 299.843 147.216 299.192 147.216C298.408 147.216 297.731 147.104 297.16 146.88C296.59 146.651 296.11 146.365 295.72 146.024L296.672 144.936C297.003 145.203 297.382 145.421 297.808 145.592C298.235 145.757 298.696 145.84 299.192 145.84ZM313.25 146.552C312.941 146.749 312.57 146.909 312.138 147.032C311.706 147.155 311.255 147.216 310.786 147.216C309.805 147.216 309.058 146.963 308.546 146.456C308.039 145.944 307.786 145.272 307.786 144.44V139.856H305.906V138.552H307.786V136.664L309.578 136.448V138.552H312.426L312.226 139.856H309.578V144.424C309.578 144.877 309.69 145.216 309.914 145.44C310.143 145.659 310.517 145.768 311.034 145.768C311.343 145.768 311.629 145.731 311.89 145.656C312.151 145.581 312.389 145.485 312.602 145.368L313.25 146.552ZM322.724 144.928C322.724 145.259 322.774 145.501 322.876 145.656C322.977 145.805 323.14 145.917 323.364 145.992L322.964 147.208C322.548 147.16 322.19 147.045 321.892 146.864C321.593 146.683 321.366 146.408 321.212 146.04C320.902 146.429 320.51 146.723 320.036 146.92C319.561 147.117 319.054 147.216 318.516 147.216C317.662 147.216 316.985 146.976 316.484 146.496C315.988 146.011 315.74 145.376 315.74 144.592C315.74 143.701 316.086 143.016 316.78 142.536C317.473 142.056 318.465 141.816 319.756 141.816H320.964V141.264C320.964 140.72 320.798 140.328 320.468 140.088C320.142 139.848 319.681 139.728 319.084 139.728C318.806 139.728 318.47 139.765 318.076 139.84C317.681 139.909 317.268 140.019 316.836 140.168L316.396 138.904C316.924 138.707 317.441 138.563 317.948 138.472C318.454 138.376 318.924 138.328 319.356 138.328C320.486 138.328 321.329 138.579 321.884 139.08C322.444 139.581 322.724 140.275 322.724 141.16V144.928ZM319.06 145.896C319.422 145.896 319.777 145.8 320.124 145.608C320.47 145.416 320.75 145.147 320.964 144.8V142.936H319.972C319.129 142.936 318.526 143.077 318.164 143.36C317.801 143.637 317.62 144.021 317.62 144.512C317.62 144.96 317.74 145.304 317.98 145.544C318.225 145.779 318.585 145.896 319.06 145.896ZM333.398 146.552C333.088 146.749 332.718 146.909 332.286 147.032C331.854 147.155 331.403 147.216 330.934 147.216C329.952 147.216 329.206 146.963 328.694 146.456C328.187 145.944 327.934 145.272 327.934 144.44V139.856H326.054V138.552H327.934V136.664L329.726 136.448V138.552H332.574L332.374 139.856H329.726V144.424C329.726 144.877 329.838 145.216 330.062 145.44C330.291 145.659 330.664 145.768 331.182 145.768C331.491 145.768 331.776 145.731 332.038 145.656C332.299 145.581 332.536 145.485 332.75 145.368L333.398 146.552ZM337.903 143.352C337.941 143.928 338.063 144.4 338.271 144.768C338.479 145.131 338.751 145.397 339.087 145.568C339.429 145.739 339.802 145.824 340.207 145.824C340.623 145.824 341.007 145.76 341.359 145.632C341.711 145.504 342.066 145.323 342.423 145.088L343.199 146.16C342.805 146.48 342.343 146.736 341.815 146.928C341.287 147.12 340.722 147.216 340.119 147.216C339.245 147.216 338.503 147.029 337.895 146.656C337.293 146.283 336.834 145.763 336.519 145.096C336.205 144.429 336.047 143.659 336.047 142.784C336.047 141.936 336.202 141.179 336.511 140.512C336.821 139.84 337.263 139.309 337.839 138.92C338.415 138.525 339.103 138.328 339.903 138.328C340.655 138.328 341.301 138.499 341.839 138.84C342.383 139.181 342.802 139.667 343.095 140.296C343.394 140.92 343.543 141.672 343.543 142.552C343.543 142.696 343.538 142.84 343.527 142.984C343.522 143.123 343.514 143.245 343.503 143.352H337.903ZM339.919 139.656C339.359 139.656 338.895 139.856 338.527 140.256C338.165 140.656 337.954 141.28 337.895 142.128H341.807C341.791 141.333 341.621 140.723 341.295 140.296C340.975 139.869 340.517 139.656 339.919 139.656Z" fill="#A1A1AA"/>
<path d="M40 48C40 43.5817 43.5817 40 48 40H526C530.418 40 534 43.5817 534 48V70H40V48Z" fill="#1F2937"/>
<rect x="63" y="40" width="81" height="30" fill="#334155"/>
<path d="M95.616 57.32C95.616 57.568 95.652 57.752 95.724 57.872C95.804 57.984 95.928 58.072 96.096 58.136L95.772 59.156C95.412 59.124 95.116 59.036 94.884 58.892C94.66 58.748 94.488 58.528 94.368 58.232C94.152 58.552 93.88 58.792 93.552 58.952C93.232 59.104 92.872 59.18 92.472 59.18C91.84 59.18 91.34 59 90.972 58.64C90.604 58.28 90.42 57.808 90.42 57.224C90.42 56.536 90.668 56.012 91.164 55.652C91.668 55.284 92.384 55.1 93.312 55.1H94.104V54.74C94.104 54.332 94.008 54.048 93.816 53.888C93.632 53.72 93.332 53.636 92.916 53.636C92.452 53.636 91.892 53.748 91.236 53.972L90.876 52.928C91.668 52.624 92.436 52.472 93.18 52.472C94.804 52.472 95.616 53.2 95.616 54.656V57.32ZM92.88 58.064C93.4 58.064 93.808 57.804 94.104 57.284V56H93.468C92.476 56 91.98 56.368 91.98 57.104C91.98 57.408 92.056 57.644 92.208 57.812C92.36 57.98 92.584 58.064 92.88 58.064ZM101.471 58.7C101.247 58.86 100.995 58.98 100.715 59.06C100.443 59.14 100.163 59.18 99.8748 59.18C99.2508 59.172 98.7748 58.996 98.4468 58.652C98.1268 58.3 97.9668 57.784 97.9668 57.104V53.756H96.9708V52.652H97.9668V51.248L99.5028 51.068V52.652H100.979L100.823 53.756H99.5028V57.068C99.5028 57.38 99.5548 57.604 99.6588 57.74C99.7708 57.876 99.9428 57.944 100.175 57.944C100.407 57.944 100.659 57.868 100.931 57.716L101.471 58.7ZM105.827 52.484C106.059 52.484 106.271 52.512 106.463 52.568L106.199 54.056C106.007 54.008 105.819 53.984 105.635 53.984C105.259 53.984 104.963 54.12 104.747 54.392C104.531 54.656 104.359 55.064 104.231 55.616V59H102.695V52.652H104.027L104.171 53.9C104.323 53.444 104.543 53.096 104.831 52.856C105.119 52.608 105.451 52.484 105.827 52.484ZM109.313 52.652V59H107.777V52.652H109.313ZM108.533 49.436C108.821 49.436 109.053 49.528 109.229 49.712C109.413 49.888 109.505 50.108 109.505 50.372C109.505 50.636 109.413 50.856 109.229 51.032C109.053 51.208 108.821 51.296 108.533 51.296C108.253 51.296 108.021 51.208 107.837 51.032C107.661 50.856 107.573 50.636 107.573 50.372C107.573 50.108 107.661 49.888 107.837 49.712C108.021 49.528 108.253 49.436 108.533 49.436ZM112.028 57.236C112.3 57.236 112.532 57.332 112.724 57.524C112.916 57.708 113.012 57.936 113.012 58.208C113.012 58.472 112.916 58.7 112.724 58.892C112.532 59.084 112.3 59.18 112.028 59.18C111.764 59.18 111.536 59.084 111.344 58.892C111.16 58.7 111.068 58.472 111.068 58.208C111.068 57.936 111.16 57.708 111.344 57.524C111.528 57.332 111.756 57.236 112.028 57.236ZM118.055 52.472C118.855 52.472 119.447 52.764 119.831 53.348C120.215 53.932 120.407 54.752 120.407 55.808C120.407 56.464 120.307 57.048 120.107 57.56C119.915 58.064 119.627 58.46 119.243 58.748C118.867 59.036 118.419 59.18 117.899 59.18C117.227 59.18 116.695 58.948 116.303 58.484V61.448L114.767 61.616V52.652H116.111L116.195 53.432C116.443 53.112 116.727 52.872 117.047 52.712C117.367 52.552 117.703 52.472 118.055 52.472ZM117.467 58.004C118.355 58.004 118.799 57.276 118.799 55.82C118.799 55.044 118.699 54.484 118.499 54.14C118.299 53.796 117.999 53.624 117.599 53.624C117.343 53.624 117.103 53.704 116.879 53.864C116.655 54.016 116.463 54.224 116.303 54.488V57.344C116.599 57.784 116.987 58.004 117.467 58.004ZM125.277 59.024C125.021 59.808 124.633 60.416 124.113 60.848C123.593 61.288 122.881 61.544 121.977 61.616L121.821 60.5C122.237 60.436 122.569 60.344 122.817 60.224C123.073 60.112 123.277 59.96 123.429 59.768C123.581 59.576 123.721 59.32 123.849 59H123.321L121.305 52.652H122.937L124.317 57.98L125.757 52.652H127.341L125.277 59.024Z" fill="#CBD5E1"/>
<path d="M74.8945 48C73.7095 48 72.7499 48.9596 72.7499 50.1446V51.4043H75.9667C76.2592 51.4043 76.4999 51.8325 76.4999 52.125H71.1445C69.9595 52.125 69 53.0846 69 54.2696V57.1055C69 58.2905 69.9595 59.25 71.1445 59.25H72.0293V57.2402C72.0293 56.0552 72.983 55.0957 74.168 55.0957H78.1055C79.2905 55.0957 80.25 54.142 80.25 52.957V50.1445C80.25 48.9595 79.2905 48 78.1055 48L74.8945 48ZM74.3554 49.2071C74.6554 49.2071 74.8945 49.2978 74.8945 49.7403C74.8945 50.1828 74.6554 50.4082 74.3554 50.4082C74.0629 50.4082 73.8222 50.1828 73.8222 49.7403C73.8222 49.2978 74.0629 49.2071 74.3554 49.2071Z" fill="#3C78AA"/>
<path d="M80.9692 51.75V53.7598C80.9692 54.9448 80.017 55.9043 78.832 55.9043H74.8945C73.7095 55.9043 72.75 56.8565 72.75 58.0415V60.854C72.7497 61.423 72.9756 61.9688 73.3778 62.3712C73.7799 62.7737 74.3256 62.9999 74.8945 63H78.1054C78.6744 62.9999 79.22 62.7737 79.6222 62.3712C80.0244 61.9688 80.2502 61.423 80.25 60.854V59.5943H77.0317C76.7392 59.5943 76.5 59.1675 76.5 58.875H81.8555C82.4244 58.8749 82.9701 58.6487 83.3722 58.2463C83.7744 57.8438 84.0003 57.298 84 56.729V53.8946C83.9998 52.7103 83.0398 51.7503 81.8555 51.75L80.9692 51.75ZM73.7402 55.1353L73.7373 55.1382C73.7463 55.1364 73.7561 55.137 73.7651 55.1353H73.7402ZM78.6445 60.5918C78.937 60.5918 79.1777 60.8173 79.1777 61.2598C79.1773 61.5539 78.9386 61.7919 78.6445 61.7915C78.3445 61.7915 78.1055 61.7023 78.1055 61.2598C78.1055 60.8173 78.3445 60.5918 78.6445 60.5918Z" fill="#FDD835"/>
</svg>
